<?xml version="1.0" encoding="UTF-8" standalone="no"?>
<svg
   xmlns:dc="http://purl.org/dc/elements/1.1/"
   xmlns:cc="http://creativecommons.org/ns#"
   xmlns:rdf="http://www.w3.org/1999/02/22-rdf-syntax-ns#"
   xmlns:svg="http://www.w3.org/2000/svg"
   xmlns="http://www.w3.org/2000/svg"
   viewBox="0 0 1333.3333 1333.3333"
   height="1333.3333"
   width="1333.3333"
   xml:space="preserve"
   id="svg2"
   version="1.1"><metadata
     id="metadata8"><rdf:RDF><cc:Work
         rdf:about=""><dc:format>image/svg+xml</dc:format><dc:type
           rdf:resource="http://purl.org/dc/dcmitype/StillImage" /></cc:Work></rdf:RDF></metadata><defs
     id="defs6"><clipPath
       id="clipPath18"
       clipPathUnits="userSpaceOnUse"><path
         id="path16"
         d="M 0,1000 H 1000 V 0 H 0 Z" /></clipPath><clipPath
       id="clipPath374"
       clipPathUnits="userSpaceOnUse"><path
         id="path372"
         d="m 374.008,649.222 h 108.316 v -53.24 H 374.008 Z" /></clipPath></defs><g
     transform="matrix(1.3333333,0,0,-1.3333333,0,1333.3333)"
     id="g10"><g
       id="g12"><g
         clip-path="url(#clipPath18)"
         id="g14"><g
           transform="translate(766.3817,560.0489)"
           id="g20"><path
             id="path22"
             style="fill:#f05a28;fill-opacity:1;fill-rule:nonzero;stroke:none"
             d="m 0,0 c 0,-152.14 -123.334,-275.474 -275.474,-275.474 -152.141,0 -275.475,123.334 -275.475,275.474 0,152.14 123.334,275.474 275.475,275.474 C -123.334,275.474 0,152.14 0,0" /></g><g
           transform="translate(759.5802,560.0489)"
           id="g24"><path
             id="path26"
             style="fill:#1b75bb;fill-opacity:1;fill-rule:nonzero;stroke:none"
             d="m 0,0 c 0,-148.384 -120.289,-268.673 -268.673,-268.673 -148.384,0 -268.673,120.289 -268.673,268.673 0,148.384 120.289,268.673 268.673,268.673 C -120.289,268.673 0,148.384 0,0" /></g><g
           transform="translate(490.3192,311.7806)"
           id="g28"><path
             id="path30"
             style="fill:#26a9e0;fill-opacity:1;fill-rule:nonzero;stroke:none"
             d="m 0,0 c -136.868,0 -247.822,111.731 -247.822,249.557 0,137.827 110.954,249.558 247.822,249.558 136.868,0 247.822,-111.731 247.822,-249.558 C 247.822,111.731 136.868,0 0,0 m 0,508.637 c -142.091,0 -257.278,-115.994 -257.278,-259.08 0,-143.085 115.187,-259.079 257.278,-259.079 142.091,0 257.278,115.994 257.278,259.079 0,143.086 -115.187,259.08 -257.278,259.08" /></g><g
           transform="translate(726.9329,560.0489)"
           id="g32"><path
             id="path34"
             style="fill:#f6921e;fill-opacity:1;fill-rule:nonzero;stroke:none"
             d="m 0,0 c 0,-130.353 -105.672,-236.026 -236.026,-236.026 -130.353,0 -236.025,105.673 -236.025,236.026 0,130.353 105.672,236.026 236.025,236.026 C -105.672,236.026 0,130.353 0,0" /></g><g
           transform="translate(490.9262,677.4315)"
           id="g36"><path
             id="path38"
             style="fill:#faaf40;fill-opacity:1;fill-rule:nonzero;stroke:none"
             d="M 0,0 12.287,117.065 12.27,-0.643 36.727,114.496 24.406,-2.565 60.764,109.387 36.274,-5.745 84.135,101.793 47.745,-10.149 106.585,91.798 58.693,-15.727 127.867,79.511 68.998,-22.419 147.748,65.066 78.547,-30.151 166.01,48.623 87.235,-38.84 182.453,30.361 94.968,-48.389 196.897,10.48 101.66,-58.693 l 107.525,47.891 -101.947,-58.839 111.942,36.39 -107.539,-47.861 115.133,24.489 -111.952,-36.358 117.061,12.321 -115.139,-24.456 117.708,0.016 -117.065,-12.287 117.065,-12.287 -117.708,0.017 115.139,-24.456 -117.061,12.32 111.952,-36.358 -115.133,24.49 107.539,-47.861 -111.942,36.39 101.947,-58.84 -107.525,47.892 95.237,-69.173 -101.929,58.868 87.485,-78.749 -95.218,69.2 78.775,-87.463 -87.463,78.775 69.201,-95.218 -78.75,87.486 58.869,-101.93 -69.174,95.237 47.892,-107.524 -58.84,101.946 36.39,-111.941 L 36.274,-229.028 60.764,-344.16 24.406,-232.208 36.727,-349.27 12.27,-234.13 12.287,-351.838 0,-234.773 l -12.287,-117.065 0.017,117.708 -24.457,-115.14 12.321,117.062 -36.358,-111.952 24.49,115.132 -47.861,-107.538 36.39,111.941 -58.84,-101.946 47.892,107.524 -69.174,-95.237 58.869,101.93 -78.75,-87.486 69.201,95.218 -87.463,-78.775 78.775,87.463 -95.218,-69.2 87.485,78.749 -101.929,-58.868 95.237,69.173 -107.525,-47.892 101.947,58.84 -111.942,-36.39 107.539,47.861 -115.133,-24.49 111.952,36.358 -117.061,-12.32 115.139,24.456 -117.708,-0.017 117.065,12.287 -117.065,12.287 117.708,-0.016 -115.139,24.456 117.061,-12.321 -111.952,36.358 115.133,-24.489 -107.539,47.861 111.942,-36.39 -101.947,58.839 107.525,-47.891 -95.237,69.173 101.929,-58.869 -87.485,78.75 95.218,-69.201 -78.775,87.463 87.463,-78.774 -69.201,95.217 78.75,-87.485 -58.869,101.93 69.174,-95.238 -47.892,107.525 58.84,-101.947 -36.39,111.942 47.861,-107.538 -24.49,115.132 36.358,-111.952 -12.321,117.061 24.457,-115.139 -0.017,117.708 z" /></g><g
           transform="translate(353.951,591.7857)"
           id="g40"><path
             id="path42"
             style="fill:#231f20;fill-opacity:1;fill-rule:nonzero;stroke:none"
             d="m 0,0 c -0.525,6.627 -1.049,13.221 -1.548,19.518 0.232,0.01 0.459,0.02 0.682,0.032 C -0.25,17.845 1.777,14.154 11.23,1.97 7.911,1.23 3.953,0.525 0,0 m 2.285,-13.808 c -0.372,-0.225 -0.751,-0.45 -1.137,-0.675 -0.018,0.229 -0.036,0.462 -0.054,0.69 0.409,-0.002 0.806,-0.007 1.191,-0.015 m 0.45,-20.708 c -0.104,1.322 -0.211,2.668 -0.319,4.031 0.305,-0.005 0.607,-0.007 0.907,-0.007 1.014,0 2.003,0.025 2.962,0.072 z m 22.1,-18.14 -0.016,-0.996 -12.099,0.198 3.003,-5.966 c -0.809,-0.752 -1.336,-1.562 -1.628,-2.095 -0.576,-1.034 -0.913,-2.155 -1.001,-3.262 -0.935,6.034 -3.948,10.491 -9.018,13.327 -0.18,2.286 -0.375,4.737 -0.58,7.326 l 9.968,2.887 c 0.217,0.063 3.735,1.101 8.545,3.667 1.468,-3.225 3.531,-6.538 6.359,-8.809 l -7.044,0.12 z m 355.592,-33.022 23.941,30.921 -16.855,-2.599 c -3.103,-0.478 -18.938,-3.288 -25.931,-11.643 -2.432,-2.905 -5.805,-7.189 -10.025,-12.733 -1.982,-2.603 -3.399,-4.464 -4.409,-5.848 l -23.49,-8.962 c -0.259,26.983 -7.994,53.18 -22.413,75.852 -12.935,20.339 -30.681,37.047 -51.617,48.674 l 17.689,28.956 c 5.302,2.426 19.078,8.948 25.004,13.83 6.224,5.128 13.709,10.517 13.785,10.571 l 20.017,14.392 -47.251,-4.024 v 39.107 l -11.737,-12.374 c -2.161,-2.278 -12.961,-14.195 -13.374,-25.081 -0.274,-7.162 -0.118,-18.867 -0.04,-23.533 L 233.014,35.861 c -13.792,5.488 -28.245,8.756 -43.113,9.749 l -4.611,70.874 c 2.939,5.036 10.45,18.299 12.486,25.702 2.139,7.776 5.157,16.492 5.187,16.58 l 8.084,23.288 -36.321,-30.486 -22.51,31.979 -2.474,-16.874 c -0.456,-3.107 -2.429,-19.068 3.499,-28.209 3.924,-6.053 10.766,-15.503 13.512,-19.267 l 4.852,-73.523 c -4.885,-0.289 -9.732,-0.824 -14.533,-1.604 0.82,1.116 1.434,2.197 1.845,3.133 l 4.51,10.276 -6.356,-0.429 -10.608,7.499 c -1.026,-0.891 -3.48,-2.488 -5.476,-3.015 -1.164,2.193 -3.228,6.076 -5.835,9.995 1.321,2.011 2.652,4.332 4.216,7.107 0.335,0.593 0.644,1.219 0.962,1.949 0.588,1.143 1.035,2.461 1.362,4.016 1.889,7.565 0.597,15.915 -0.801,21.503 -0.094,0.4 -0.203,0.824 -0.318,1.224 -1.154,4.295 -5.364,18.083 -12.444,20.916 -1.027,0.411 -2.082,0.619 -3.134,0.619 -2.119,0 -4.103,-0.837 -5.589,-2.358 -3.023,-3.091 -2.92,-7.61 -2.778,-13.865 0.1,-4.428 0.238,-10.492 -1.077,-13.489 -0.517,-1.177 -3.149,-3.503 -9.711,-5.424 -10.199,6.08 -21.256,9.159 -32.909,9.159 -2.156,0 -4.355,-0.109 -6.536,-0.325 -2.422,-0.241 -4.835,-0.542 -7.196,-0.901 -1.998,0.64 -4.016,1.043 -6.024,1.204 l -1.393,0.113 -3.394,-1.146 c -1.418,0.686 -2.997,1.055 -4.641,1.055 -2.385,0 -4.686,-0.801 -6.563,-2.271 -1.517,-0.977 -2.746,-2.277 -3.618,-3.788 L 28.097,94.981 C 22.116,93.494 18.581,87.521 17.012,84.108 10.224,78.059 5.425,70.667 2.719,62.092 L 0.889,60.224 C -0.869,60.21 -2.762,60.145 -4.78,60.03 c -0.164,2.026 -0.275,3.386 -0.323,3.941 -0.388,4.463 -5.221,21.977 -11.105,37.029 -12.182,31.166 -21.75,34.771 -27.888,34.771 -2.708,0 -5.378,-0.898 -7.718,-2.598 L -58.34,120.47 c -1.155,-4.352 -2.288,-9.93 -3.73,-17.027 -0.556,-2.74 -1.162,-5.724 -1.834,-8.961 -0.818,-3.948 -1.07,-9.183 -0.753,-15.813 -1.028,0.877 -2.068,1.613 -3.166,2.185 -3.622,1.883 -6.648,3.137 -9.643,3.137 -3.111,0 -5.841,-1.41 -7.49,-3.87 -2.796,-4.17 -2.11,-9.924 2.547,-21.269 l 0.791,-1.888 c 2.903,-6.808 5.88,-11.946 9.363,-16.16 3.44,-4.392 7.087,-7.514 10.848,-9.287 1.242,-0.736 2.537,-1.424 3.911,-2.074 1.761,-8.785 3.849,-18.399 6.218,-28.636 l 0.07,-0.3 c 4.78,-20.629 9.852,-40.174 13.651,-54.29 -2.389,-1.697 -4.365,-3.708 -5.904,-6.015 -1.068,-1.602 -2.129,-3.331 -2.976,-5.167 l -1.63,0.432 -0.06,-6.188 c -0.102,-0.927 -0.117,-1.873 -0.027,-2.837 l -0.101,-10.37 1.228,-1.776 c 0.085,-0.123 1.799,-2.586 4.646,-5.664 0.319,-2.708 1.075,-6.137 2.704,-10.061 -1.195,-7.539 1.233,-14.329 6.846,-18.973 0.17,-0.181 0.343,-0.36 0.518,-0.539 2.267,-7.032 6.532,-10.239 9.853,-11.699 0.776,-0.342 1.527,-0.638 2.259,-0.892 0.361,-0.571 0.765,-1.103 1.208,-1.593 2.81,-8.255 6.234,-14.736 10.182,-19.272 2.801,-3.216 5.978,-5.875 9.447,-7.905 4.519,-2.951 9.343,-4.447 14.342,-4.447 1.504,0 3.036,0.14 4.554,0.413 3.44,0.498 6.635,1.668 9.506,3.482 l 0.82,0.461 0.265,0.264 c 2.281,1.621 4.257,3.632 5.887,5.99 0.639,0.665 1.309,1.364 2,2.092 l -1.358,-5.281 5.006,3.995 -0.823,-6.048 8.142,5.133 c 10.514,-23.812 27.201,-44.218 48.629,-59.367 24.25,-17.145 52.804,-26.207 82.576,-26.207 39.91,0 77.929,16.665 105.049,45.882 l 11.472,14.037 c 13.88,19.335 22.72,41.749 25.767,65.331 l 27.533,10.477 c 5.477,-1.281 19.558,-4.385 27.378,-4.385 0.298,0 0.583,0.004 0.861,0.013 2.018,0.061 4.284,0.091 6.734,0.091 5.723,0 10.59,-0.17 10.638,-0.172 l 24.637,-0.874 z" /></g><g
           transform="translate(375.7528,486.7987)"
           id="g44"><path
             id="path46"
             style="fill:#d0d2d3;fill-opacity:1;fill-rule:nonzero;stroke:none"
             d="m 0,0 0.858,7.06 -4.677,1.97 6.076,3.366 -6.076,2.704 h 7.727 l -5.514,6.936 h 5.514 v 2.883 l -5.514,1.964 c 0,0 5.593,0.393 5.514,1.178 -0.08,0.786 -9.023,1.571 -9.023,1.571 l 15.833,2.006 -9.86,3.297 h 4.933 c 0,0 -10.26,5.302 -4.933,4.909 5.326,-0.392 3.05,3.535 3.05,3.535 h 6.81 v 3.535 h 4.076 l -2.265,3.966 h 6.917 l -1.375,4.263 h 4.479 l 1.284,2.376 h 9.156 l -6.373,2.16 h 13.745 l 9.717,-86.697 -20.254,-12.604 1.271,9.08 -1.739,-1.385 3.023,11.722 -6.771,-5.437 2.383,8.326 -8.546,-2.379 4.998,5.122 h -5.61 l 3.648,4.144 -8.161,1.692 3.75,5.453 -5.542,2.788 -4.381,-7.643 2.57,12.807 -6.81,-5.164 V 7.06 Z" /></g><g
           transform="translate(376.051,487.7142)"
           id="g48"><path
             id="path50"
             style="fill:#929497;fill-opacity:1;fill-rule:nonzero;stroke:none"
             d="m 0,0 3.279,6.327 0.673,1.298 0.035,-1.481 0.177,-7.555 -0.89,0.442 6.697,5.314 1.536,1.218 -0.358,-1.957 -2.351,-12.85 -1.787,0.671 4.249,7.718 0.503,0.914 0.97,-0.471 5.581,-2.71 1.233,-0.599 -0.781,-1.161 -3.693,-5.493 -0.791,1.971 8.178,-1.606 2.286,-0.449 -1.539,-1.786 -3.604,-4.183 -1.067,2.36 5.61,0.059 3.497,0.037 -2.438,-2.551 -4.944,-5.174 -1.53,2.585 8.532,2.426 2.75,0.781 -0.778,-2.768 -2.343,-8.337 -2.612,1.736 6.752,5.461 3.944,3.19 -1.271,-4.916 -3.031,-11.72 -2.654,1.721 1.739,1.384 3.285,2.612 -0.596,-4.147 -1.305,-9.074 -2.478,1.611 20.327,12.484 -0.693,-1.432 -2.268,21.693 C 45.304,0.827 44.538,8.056 43.86,15.296 l -2.107,21.71 -1.068,10.854 -1.153,10.844 0.532,-0.476 -13.745,0.064 0.151,0.918 6.381,-2.138 2.82,-0.944 -2.979,-0.02 -9.157,-0.061 0.49,0.292 -1.26,-2.389 -0.159,-0.302 -0.355,-0.004 -4.478,-0.049 0.602,0.826 1.446,-4.239 0.31,-0.908 -0.984,-0.017 -6.916,-0.117 0.716,1.234 2.332,-3.928 0.786,-1.323 -1.569,-0.026 -4.076,-0.069 0.97,0.97 0.058,-3.534 0.016,-1.011 -1.044,-0.017 -6.811,-0.111 0.986,1.71 C 4.833,42.607 4.968,42.265 5.097,41.836 5.215,41.419 5.281,40.943 5.246,40.422 5.182,39.889 4.977,39.289 4.562,38.847 4.373,38.614 4.139,38.474 3.914,38.302 3.692,38.179 3.466,38.082 3.236,37.982 2.805,37.855 2.375,37.742 1.947,37.72 1.479,37.665 1.163,37.68 0.833,37.684 l -0.528,0.01 C 0.16,37.702 0.031,37.7 -0.077,37.691 c -0.066,0 -0.111,-0.007 -0.136,-0.015 -0.029,-0.005 -0.089,-0.012 -0.041,-0.008 0.011,0.003 0.022,0.008 0.031,0.017 0.047,0.017 0.13,0.059 0.18,0.109 0.027,0.033 0.157,0.14 0.229,0.283 0.066,0.149 0.1,0.27 0.115,0.398 0.005,0.065 0.001,0.131 -0.012,0.193 L 0.278,38.755 C 0.273,38.8 0.237,38.868 0.231,38.882 0.247,38.884 0.203,38.92 0.244,38.88 0.278,38.838 0.363,38.755 0.449,38.675 0.636,38.507 0.873,38.323 1.114,38.146 1.608,37.789 2.149,37.444 2.699,37.11 3.801,36.445 4.966,35.807 6.113,35.218 L 10.994,32.713 5.493,32.67 0.56,32.631 1,35.336 l 9.866,-3.279 5.927,-1.97 -6.196,-0.761 -15.84,-1.945 -0.052,2.678 c 1.268,-0.121 2.515,-0.258 3.775,-0.417 1.261,-0.161 2.509,-0.338 3.811,-0.614 0.329,-0.072 0.656,-0.147 1.024,-0.262 0.184,-0.058 0.384,-0.127 0.636,-0.248 l 0.238,-0.139 c 0.031,-0.022 0.013,-0.004 0.084,-0.058 0.058,-0.045 0.116,-0.095 0.17,-0.15 0.109,-0.109 0.204,-0.237 0.276,-0.367 L 4.777,27.689 4.789,27.662 4.801,27.635 4.804,27.629 C 4.978,26.927 4.853,27.417 4.893,27.252 L 4.894,27.221 V 27.094 C 4.89,26.93 4.851,26.736 4.801,26.612 4.755,26.498 4.695,26.385 4.625,26.282 4.495,26.1 4.404,26.028 4.287,25.926 4.208,25.867 4.119,25.806 4.04,25.758 3.905,25.683 3.773,25.621 3.669,25.581 3.447,25.491 3.26,25.436 3.078,25.386 2.717,25.289 2.382,25.223 2.05,25.164 0.728,24.94 -0.521,24.826 -1.817,24.734 l 0.328,2.398 5.496,-2.013 0.796,-0.292 -0.01,-0.823 -0.035,-2.884 -0.014,-1.167 -1.135,0.018 -5.513,0.087 0.832,1.723 5.404,-7.022 1.175,-1.527 -1.898,0.03 -7.726,0.121 0.326,1.534 C -1.779,13.988 0.231,13.05 2.231,12.092 L 3.456,11.506 2.283,10.894 -3.875,7.678 -3.923,8.575 0.705,6.49 0.973,6.369 0.932,6.099 Z m -0.517,-1.594 0.704,7.784 0.227,-0.391 -4.725,1.855 -0.946,0.371 0.898,0.527 5.992,3.514 0.053,-1.198 c -2.051,0.845 -4.092,1.711 -6.129,2.584 l -3.44,1.475 3.766,0.059 7.726,0.122 -0.722,-1.498 -5.623,6.849 -1.386,1.689 2.218,0.034 5.513,0.087 -1.149,-1.149 -0.035,2.884 0.787,-1.116 -5.531,1.915 -5.461,1.89 5.789,0.508 c 1.196,0.105 2.439,0.244 3.58,0.461 0.282,0.055 0.56,0.117 0.801,0.187 0.119,0.034 0.232,0.072 0.299,0.103 l 0.052,0.024 C 2.727,27.97 2.702,27.955 2.688,27.939 2.626,27.891 2.599,27.869 2.512,27.752 2.461,27.682 2.42,27.603 2.393,27.523 2.358,27.434 2.317,27.282 2.319,27.155 l 0.004,-0.097 0.003,-0.024 c 0.039,-0.162 -0.084,0.33 0.089,-0.37 L 2.411,26.671 2.399,26.698 2.387,26.724 2.382,26.733 2.411,26.656 C 2.454,26.552 2.52,26.45 2.6,26.367 2.683,26.279 2.791,26.213 2.761,26.23 2.771,26.22 2.783,26.212 2.796,26.208 2.765,26.219 2.67,26.257 2.555,26.289 2.325,26.357 2.041,26.42 1.758,26.476 0.61,26.7 -0.625,26.849 -1.844,27 c -1.223,0.143 -2.464,0.269 -3.687,0.375 l -12.355,1.073 12.304,1.605 15.825,2.065 -0.269,-2.73 -9.855,3.315 -8.243,2.773 L 0.56,35.407 5.493,35.369 4.874,32.82 c -1.218,0.653 -2.385,1.32 -3.557,2.055 -0.584,0.37 -1.164,0.752 -1.746,1.188 -0.291,0.225 -0.583,0.45 -0.884,0.739 -0.153,0.152 -0.305,0.305 -0.474,0.528 -0.074,0.083 -0.184,0.276 -0.261,0.416 -0.046,0.088 -0.099,0.239 -0.133,0.361 -0.018,0.071 -0.034,0.117 -0.046,0.208 -0.01,0.103 -0.013,0.211 -0.006,0.318 0.01,0.213 0.056,0.415 0.179,0.631 0.115,0.216 0.28,0.401 0.387,0.471 0.12,0.095 0.269,0.19 0.389,0.246 l 0.269,0.094 c 0.204,0.067 0.312,0.071 0.448,0.091 0.14,0.021 0.261,0.029 0.362,0.028 0.226,0.009 0.431,0.002 0.619,-0.013 l 0.472,-0.024 c 0.338,-0.018 0.69,-0.035 0.886,-0.002 0.242,-0.002 0.461,0.063 0.674,0.104 0.073,0.039 0.159,0.066 0.232,0.094 0.028,0.044 0.107,0.058 0.12,0.091 0.057,0.043 0.073,0.103 0.112,0.224 0.008,0.145 0.007,0.341 -0.05,0.568 -0.052,0.214 -0.162,0.498 -0.242,0.657 l -0.876,1.74 1.861,-0.031 6.811,-0.11 -1.028,-1.028 0.058,3.534 0.016,0.987 0.954,-0.016 4.076,-0.069 -0.783,-1.349 -2.198,4.005 -0.691,1.257 1.407,-0.024 6.916,-0.116 -0.673,-0.925 -1.303,4.285 -0.254,0.836 0.856,-0.01 4.478,-0.048 -0.513,-0.306 1.308,2.362 0.163,0.294 0.326,-0.002 9.157,-0.06 -0.159,-0.965 -6.365,2.183 -2.642,0.905 2.793,0.013 13.745,0.064 0.475,0.002 0.057,-0.478 1.275,-10.83 1.362,-10.821 2.751,-21.638 c 0.941,-7.21 1.795,-14.43 2.687,-21.646 l 2.591,-21.656 0.111,-0.925 -0.805,-0.507 -20.179,-12.722 -2.95,-1.86 0.472,3.471 1.236,9.084 2.689,-1.534 -1.738,-1.386 -3.895,-3.108 1.241,4.829 3.014,11.724 2.673,-1.726 -6.79,-5.413 -4.062,-3.238 1.449,4.974 2.424,8.315 1.972,-1.986 -8.559,-2.333 -5.638,-1.536 4.108,4.121 5.052,5.069 1.059,-2.514 -5.61,0.059 -3.158,0.034 2.092,2.326 3.691,4.105 0.746,-2.234 -8.143,1.778 -1.888,0.413 1.096,1.558 3.808,5.414 0.451,-1.76 -5.503,2.865 1.473,0.443 L 8.689,-9.535 5.634,-14.659 6.901,-8.864 9.692,3.899 10.869,3.16 3.945,-1.854 3.028,-2.517 3.054,-1.411 3.232,6.144 3.939,5.962 Z" /></g><g
           transform="translate(379.6604,434.8616)"
           id="g52"><path
             id="path54"
             style="fill:#b1885b;fill-opacity:1;fill-rule:nonzero;stroke:none"
             d="M 0,0 C 0,0 30.318,30.008 28.472,36.129 26.625,42.251 13.184,59.661 2.669,56.253 -7.846,52.845 -7.727,41.508 -7.727,41.508 Z" /></g><g
           transform="translate(333.451,504.0821)"
           id="g56"><path
             id="path58"
             style="fill:#d8a76c;fill-opacity:1;fill-rule:nonzero;stroke:none"
             d="m 0,0 c 0,0 2.117,-45.34 16.82,-62.227 14.702,-16.888 37.996,-11.588 38.011,11.74 0.014,23.328 -42.658,62.836 -42.658,62.836 z" /></g><g
           transform="translate(355.9389,511.718)"
           id="g60"><path
             id="path62"
             style="fill:#603813;fill-opacity:1;fill-rule:nonzero;stroke:none"
             d="m 0,0 1.738,-2.884 c 0,0 7.371,-41.891 6.193,-46.997 -1.178,-5.106 -12.528,-14.012 -20.411,2.824 -7.883,16.835 -15.527,57.072 -15.527,57.072 z" /></g><g
           transform="translate(318.3094,505.976)"
           id="g64"><path
             id="path66"
             style="fill:#f8c786;fill-opacity:1;fill-rule:nonzero;stroke:none"
             d="m 0,0 c 0,0 -1.4,-7.219 4.406,-17.431 5.806,-10.212 24.658,-7.855 28.193,0 3.535,7.855 -1.963,12.961 -4.713,13.354 C 25.137,-3.684 0,0 0,0" /></g><g
           transform="translate(312.6009,518.4366)"
           id="g68"><path
             id="path70"
             style="fill:#c3996b;fill-opacity:1;fill-rule:nonzero;stroke:none"
             d="m 0,0 -0.083,-8.486 c 0,0 10.871,-15.735 24.042,-16.41 13.171,-0.675 19.379,12.448 19.379,12.448 z" /></g><g
           transform="translate(342.0715,537.6404)"
           id="g72"><path
             id="path74"
             style="fill:#a87c4f;fill-opacity:1;fill-rule:nonzero;stroke:none"
             d="m 0,0 c 12.372,-1.767 22.124,-3.535 17.248,-24.155 -4.876,-20.62 -30.369,-15.318 -38.243,-6.481 -7.873,8.838 -11.998,10.61 -4.927,21.21 C -18.852,1.173 0,0 0,0" /></g><g
           transform="translate(386.8466,586.7358)"
           id="g76"><path
             id="path78"
             style="fill:#f8c786;fill-opacity:1;fill-rule:nonzero;stroke:none"
             d="m 0,0 c 0,0 -5.337,-27.066 24.236,-43.579 29.573,-16.514 78.688,65.761 79.723,71.367 1.035,5.606 -6.161,12.87 -6.161,12.87 l 0.786,7.652 c 0,0 -12.324,24.379 -27.69,24.715 C 55.528,73.362 43.169,69.232 22.174,59.851 1.178,50.47 0,0 0,0" /></g><g
           transform="translate(402.0154,586.9325)"
           id="g80"><path
             id="path82"
             style="fill:#ffffff;fill-opacity:1;fill-rule:nonzero;stroke:none"
             d="M 0,0 C 5.34,-5.47 13.297,-6.362 17.771,-1.994 22.246,2.375 21.545,10.351 16.205,15.82 10.865,21.29 2.908,22.183 -1.567,17.814 -6.041,13.445 -5.34,5.47 0,0" /></g><g
           transform="translate(418.4682,602.832)"
           id="g84"><path
             id="path86"
             style="fill:#231f20;fill-opacity:1;fill-rule:nonzero;stroke:none"
             d="m 0,0 c 1.799,-1.843 1.764,-4.796 -0.079,-6.596 -1.843,-1.799 -4.796,-1.763 -6.596,0.08 -1.799,1.843 -1.764,4.796 0.079,6.595 C -4.752,1.879 -1.799,1.843 0,0" /></g><g
           transform="translate(415.5071,602.2105)"
           id="g88"><path
             id="path90"
             style="fill:#ffffff;fill-opacity:1;fill-rule:nonzero;stroke:none"
             d="M 0,0 C 0.626,-0.642 0.796,-1.492 0.379,-1.899 -0.038,-2.307 -0.884,-2.116 -1.511,-1.475 -2.137,-0.833 -2.307,0.017 -1.89,0.424 -1.472,0.832 -0.626,0.642 0,0" /></g><g
           transform="translate(402.3699,582.1672)"
           id="g92"><path
             id="path94"
             style="fill:#f8c786;fill-opacity:1;fill-rule:nonzero;stroke:none"
             d="m 0,0 c 0,0 1.897,17.771 14.2,22.069 0,0 -6.436,7.138 -11.795,5.522 C -2.955,25.974 -16.182,15.125 0,0" /></g><g
           transform="translate(416.5695,604.236)"
           id="g96"><path
             id="path98"
             style="fill:#faaf40;fill-opacity:1;fill-rule:nonzero;stroke:none"
             d="m 0,0 c 0,0 -16.94,0.66 -14.2,-22.069 0,0 2.683,17.967 14.2,22.069" /></g><g
           transform="translate(422.7331,606.2758)"
           id="g100"><path
             id="path102"
             style="fill:#faaf40;fill-opacity:1;fill-rule:nonzero;stroke:none"
             d="m 0,0 c 0,0 3.483,0.295 0,8.248 -3.484,7.953 -17.433,5.008 -22.536,0 C -27.638,3.24 -45.112,-0.898 0,0" /></g><g
           transform="translate(425.8314,638.9292)"
           id="g104"><path
             id="path106"
             style="fill:#f05a28;fill-opacity:1;fill-rule:nonzero;stroke:none"
             d="m 0,0 c 0,0 -5.855,-38.299 -18.591,-43.282 l -0.392,20.477 -9.83,-30.174 v 25.51 c 0,0 2.789,-23.153 -7.226,-36.704 -10.016,-13.55 -24.269,-17.674 -24.269,-17.674 l 18.377,21.209 c 0,0 -8.248,-11.783 -31.224,-10.015 0,0 15.582,7.659 16.923,12.372 1.34,4.713 -16.923,4.124 -16.923,4.124 0,0 31.245,3.633 25.035,9.44 C -62.696,-31.087 -21.205,5.287 0,0" /></g><g
           transform="translate(670.8146,493.8431)"
           id="g108"><path
             id="path110"
             style="fill:#929497;fill-opacity:1;fill-rule:nonzero;stroke:none"
             d="m 0,0 c 0,-75.706 -61.195,-137.078 -136.682,-137.078 -75.487,0 -136.681,61.372 -136.681,137.078 0,75.706 61.194,137.078 136.681,137.078 C -61.195,137.078 0,75.706 0,0" /></g><g
           transform="translate(669.0471,493.5406)"
           id="g112"><path
             id="path114"
             style="fill:#404041;fill-opacity:1;fill-rule:nonzero;stroke:none"
             d="m 0,0 c 0,-73.908 -59.873,-133.822 -133.73,-133.822 -73.857,0 -133.73,59.914 -133.73,133.822 0,73.908 59.873,133.822 133.73,133.822 C -59.873,133.822 0,73.908 0,0" /></g><g
           transform="translate(401.5718,683.0279)"
           id="g116"><path
             id="path118"
             style="fill:#404041;fill-opacity:1;fill-rule:nonzero;stroke:none"
             d="m 0,0 c 0,-2.418 -1.96,-4.378 -4.378,-4.378 -2.418,0 -4.378,1.96 -4.378,4.378 0,2.418 1.96,4.378 4.378,4.378 C -1.96,4.378 0,2.418 0,0" /></g><g
           transform="translate(401.5718,683.9965)"
           id="g120"><path
             id="path122"
             style="fill:#6d6e70;fill-opacity:1;fill-rule:nonzero;stroke:none"
             d="m 0,0 c 0,-2.14 -1.734,-3.874 -3.874,-3.874 -2.139,0 -3.874,1.734 -3.874,3.874 0,2.14 1.735,3.874 3.874,3.874 C -1.734,3.874 0,2.14 0,0" /></g><g
           transform="translate(400.1972,684.8868)"
           id="g124"><path
             id="path126"
             style="fill:#929497;fill-opacity:1;fill-rule:nonzero;stroke:none"
             d="m 0,0 c 0,-1.38 -1.119,-2.499 -2.499,-2.499 -1.381,0 -2.5,1.119 -2.5,2.499 0,1.38 1.119,2.499 2.5,2.499 C -1.119,2.499 0,1.38 0,0" /></g><g
           transform="translate(399.5864,686.1223)"
           id="g128"><path
             id="path130"
             style="fill:#e6e7e8;fill-opacity:1;fill-rule:nonzero;stroke:none"
             d="m 0,0 c 0,-0.709 -0.575,-1.284 -1.284,-1.284 -0.709,0 -1.284,0.575 -1.284,1.284 0,0.709 0.575,1.284 1.284,1.284 C -0.575,1.284 0,0.709 0,0" /></g><g
           transform="translate(452.2729,677.0167)"
           id="g132"><path
             id="path134"
             style="fill:#c3996b;fill-opacity:1;fill-rule:nonzero;stroke:none"
             d="M 0,0 C 0,0 19.504,2.183 23.456,11.186 27.408,20.188 22.6,38.569 27.282,36.697 31.964,34.825 42.141,9.198 35.124,-3.25 28.108,-15.698 26.255,-18.185 10.683,-20.425 Z" /></g><g
           transform="translate(467.8608,670.983)"
           id="g136"><path
             id="path138"
             style="fill:#a87c4f;fill-opacity:1;fill-rule:nonzero;stroke:none"
             d="m 0,0 c 0,0 10.892,-1.016 14.133,4.402 3.24,5.418 5.8,8.618 5.302,17.201 -0.498,8.582 0.467,5.717 0.921,3.762 C 20.811,23.41 22.953,9.259 20.32,4.402 17.687,-0.456 10.804,-9.41 10.804,-9.41 Z" /></g><g
           transform="translate(472.2726,666.074)"
           id="g140"><path
             id="path142"
             style="fill:#8a5d3b;fill-opacity:1;fill-rule:nonzero;stroke:none"
             d="m 0,0 c 0,0 -18.558,24.744 -51.256,21.504 -32.697,-3.241 -71.286,-18.558 -57.147,-73.054 0,0 57.147,52.434 108.403,51.55" /></g><g
           transform="translate(405.4541,661.6153)"
           id="g144"><path
             id="path146"
             style="fill:#404041;fill-opacity:1;fill-rule:nonzero;stroke:none"
             d="m 0,0 c 0,0 -6.922,13.621 -21.602,15.226 l -7.242,-5.051 c 0,0 2.872,7.54 7.291,8.423 4.418,0.884 14.006,-2.226 25.119,-17.314 z" /></g><g
           transform="translate(430.5807,668.9119)"
           id="g148"><path
             id="path150"
             style="fill:#929497;fill-opacity:1;fill-rule:nonzero;stroke:none"
             d="M 0,0 C 0,0 -9.269,17.778 -23.998,18.959 L -46.68,11.302 c 0,0 14.301,-1.638 25.12,-17.315 0,0 17.951,5.307 21.56,6.013" /></g><g
           transform="translate(368.9703,633.4169)"
           id="g152"><path
             id="path154"
             style="fill:#c3996b;fill-opacity:1;fill-rule:nonzero;stroke:none"
             d="m 0,0 c -4.72,-8.741 -8.858,-14.285 -8.858,-14.285 0,0 -9.648,-3.259 -36.159,1.455 -26.512,4.713 -36.527,10.112 -45.365,30.831 -8.837,20.719 -2.963,19.016 4.401,15.187 C -78.616,29.359 -67.335,4.922 -45.035,8.543 13.29,18.012 2.278,4.219 0,0" /></g><g
           transform="translate(369.5992,635.425)"
           id="g156"><path
             id="path158"
             style="fill:#a87c4f;fill-opacity:1;fill-rule:nonzero;stroke:none"
             d="m 0,0 c 0,0 -21.509,-8.489 -36.532,-8.194 -15.023,0.294 -47.426,17.414 -50.372,23.73 -2.946,6.316 -5.647,4.137 -4.877,2.297 0.771,-1.84 7.879,-19.451 17.875,-23.918 9.997,-4.467 32.088,-11.325 43.56,-11.306 11.471,0.02 20.859,1.098 20.859,1.098 0,0 7.768,14.43 9.487,16.293" /></g><g
           transform="translate(489.792,648.5495)"
           id="g160"><path
             id="path162"
             style="fill:#808184;fill-opacity:1;fill-rule:nonzero;stroke:none"
             d="m 0,0 c -1.113,1.8 -8.472,17.443 -15.921,20.829 -7.449,3.386 -36.568,5.581 -75.167,-10.414 -38.599,-15.996 -39.954,-42.406 -39.276,-45.114 0.677,-2.709 12.905,-18.203 12.905,-18.203 0,0 4.94,35.331 58.504,51.201 C -16.93,10.749 0,0 0,0" /></g><g
           transform="translate(377.7115,594.2119)"
           id="g164"><path
             id="path166"
             style="fill:#404041;fill-opacity:1;fill-rule:nonzero;stroke:none"
             d="m 0,0 c 0,0 -12.866,11.512 20.993,31.827 33.858,20.316 84.525,29.796 85.94,17.607 1.416,-12.189 0,-16.252 0,-16.252 0,0 5.479,2.031 5.479,8.126 0,6.095 6.771,21.67 -22.347,19.638 C 60.946,58.915 25.631,47.118 2.709,25.733 -10.288,13.607 -10.158,-1.354 0,0" /></g><g
           transform="translate(419.8387,673.3539)"
           id="g168"><path
             id="path170"
             style="fill:#404041;fill-opacity:1;fill-rule:nonzero;stroke:none"
             d="m 0,0 c 0,-2.418 -1.96,-4.378 -4.378,-4.378 -2.418,0 -4.378,1.96 -4.378,4.378 0,2.418 1.96,4.378 4.378,4.378 C -1.96,4.378 0,2.418 0,0" /></g><g
           transform="translate(419.8387,674.3225)"
           id="g172"><path
             id="path174"
             style="fill:#6d6e70;fill-opacity:1;fill-rule:nonzero;stroke:none"
             d="m 0,0 c 0,-2.14 -1.734,-3.874 -3.874,-3.874 -2.139,0 -3.874,1.734 -3.874,3.874 0,2.14 1.735,3.874 3.874,3.874 C -1.734,3.874 0,2.14 0,0" /></g><g
           transform="translate(418.4641,675.2129)"
           id="g176"><path
             id="path178"
             style="fill:#929497;fill-opacity:1;fill-rule:nonzero;stroke:none"
             d="m 0,0 c 0,-1.38 -1.119,-2.499 -2.499,-2.499 -1.381,0 -2.5,1.119 -2.5,2.499 0,1.38 1.119,2.499 2.5,2.499 C -1.119,2.499 0,1.38 0,0" /></g><g
           transform="translate(417.8532,676.4484)"
           id="g180"><path
             id="path182"
             style="fill:#e6e7e8;fill-opacity:1;fill-rule:nonzero;stroke:none"
             d="m 0,0 c 0,-0.709 -0.575,-1.284 -1.284,-1.284 -0.709,0 -1.284,0.575 -1.284,1.284 0,0.709 0.575,1.284 1.284,1.284 C -0.575,1.284 0,0.709 0,0" /></g><g
           transform="translate(410.1178,650.965)"
           id="g184"><path
             id="path186"
             style="fill:#404041;fill-opacity:1;fill-rule:nonzero;stroke:none"
             d="m 0,0 c 0,-2.418 -1.96,-4.378 -4.378,-4.378 -2.418,0 -4.378,1.96 -4.378,4.378 0,2.418 1.96,4.378 4.378,4.378 C -1.96,4.378 0,2.418 0,0" /></g><g
           transform="translate(410.1178,651.9335)"
           id="g188"><path
             id="path190"
             style="fill:#6d6e70;fill-opacity:1;fill-rule:nonzero;stroke:none"
             d="m 0,0 c 0,-2.14 -1.734,-3.874 -3.874,-3.874 -2.139,0 -3.874,1.734 -3.874,3.874 0,2.14 1.735,3.874 3.874,3.874 C -1.734,3.874 0,2.14 0,0" /></g><g
           transform="translate(408.7431,652.8239)"
           id="g192"><path
             id="path194"
             style="fill:#929497;fill-opacity:1;fill-rule:nonzero;stroke:none"
             d="m 0,0 c 0,-1.38 -1.119,-2.499 -2.499,-2.499 -1.381,0 -2.5,1.119 -2.5,2.499 0,1.38 1.119,2.499 2.5,2.499 C -1.119,2.499 0,1.38 0,0" /></g><g
           transform="translate(408.1324,654.0594)"
           id="g196"><path
             id="path198"
             style="fill:#e6e7e8;fill-opacity:1;fill-rule:nonzero;stroke:none"
             d="m 0,0 c 0,-0.709 -0.575,-1.284 -1.284,-1.284 -0.709,0 -1.284,0.575 -1.284,1.284 0,0.709 0.575,1.284 1.284,1.284 C -0.575,1.284 0,0.709 0,0" /></g><g
           transform="translate(375.7528,625.8295)"
           id="g200"><path
             id="path202"
             style="fill:#404041;fill-opacity:1;fill-rule:nonzero;stroke:none"
             d="m 0,0 c 0,-2.825 -2.29,-5.115 -5.115,-5.115 -2.824,0 -5.114,2.29 -5.114,5.115 0,2.825 2.29,5.115 5.114,5.115 C -2.29,5.115 0,2.825 0,0" /></g><g
           transform="translate(375.7528,626.961)"
           id="g204"><path
             id="path206"
             style="fill:#6d6e70;fill-opacity:1;fill-rule:nonzero;stroke:none"
             d="m 0,0 c 0,-2.499 -2.026,-4.526 -4.526,-4.526 -2.499,0 -4.525,2.027 -4.525,4.526 0,2.499 2.026,4.526 4.525,4.526 C -2.026,4.526 0,2.499 0,0" /></g><g
           transform="translate(374.1469,628.0012)"
           id="g208"><path
             id="path210"
             style="fill:#929497;fill-opacity:1;fill-rule:nonzero;stroke:none"
             d="m 0,0 c 0,-1.612 -1.307,-2.92 -2.92,-2.92 -1.612,0 -2.919,1.308 -2.919,2.92 0,1.612 1.307,2.92 2.919,2.92 C -1.307,2.92 0,1.612 0,0" /></g><g
           transform="translate(373.4334,629.4444)"
           id="g212"><path
             id="path214"
             style="fill:#e6e7e8;fill-opacity:1;fill-rule:nonzero;stroke:none"
             d="m 0,0 c 0,-0.828 -0.671,-1.5 -1.5,-1.5 -0.828,0 -1.499,0.672 -1.499,1.5 0,0.828 0.671,1.5 1.499,1.5 C -0.671,1.5 0,0.828 0,0" /></g><g
           transform="translate(447.8231,662.6666)"
           id="g216"><path
             id="path218"
             style="fill:#404041;fill-opacity:1;fill-rule:nonzero;stroke:none"
             d="m 0,0 c 0,-2.418 -1.96,-4.378 -4.378,-4.378 -2.418,0 -4.378,1.96 -4.378,4.378 0,2.418 1.96,4.378 4.378,4.378 C -1.96,4.378 0,2.418 0,0" /></g><g
           transform="translate(447.8231,663.6352)"
           id="g220"><path
             id="path222"
             style="fill:#6d6e70;fill-opacity:1;fill-rule:nonzero;stroke:none"
             d="m 0,0 c 0,-2.139 -1.734,-3.874 -3.874,-3.874 -2.139,0 -3.874,1.735 -3.874,3.874 0,2.14 1.735,3.874 3.874,3.874 C -1.734,3.874 0,2.14 0,0" /></g><g
           transform="translate(446.4484,664.5256)"
           id="g224"><path
             id="path226"
             style="fill:#929497;fill-opacity:1;fill-rule:nonzero;stroke:none"
             d="m 0,0 c 0,-1.38 -1.119,-2.499 -2.499,-2.499 -1.381,0 -2.5,1.119 -2.5,2.499 0,1.38 1.119,2.499 2.5,2.499 C -1.119,2.499 0,1.38 0,0" /></g><g
           transform="translate(445.8376,665.761)"
           id="g228"><path
             id="path230"
             style="fill:#e6e7e8;fill-opacity:1;fill-rule:nonzero;stroke:none"
             d="m 0,0 c 0,-0.709 -0.575,-1.284 -1.284,-1.284 -0.709,0 -1.284,0.575 -1.284,1.284 0,0.709 0.575,1.284 1.284,1.284 C -0.575,1.284 0,0.709 0,0" /></g><g
           transform="translate(476.7123,664.342)"
           id="g232"><path
             id="path234"
             style="fill:#404041;fill-opacity:1;fill-rule:nonzero;stroke:none"
             d="m 0,0 c 0,-1.912 -1.55,-3.463 -3.463,-3.463 -1.912,0 -3.462,1.551 -3.462,3.463 0,1.912 1.55,3.463 3.462,3.463 C -1.55,3.463 0,1.912 0,0" /></g><g
           transform="translate(476.7123,665.108)"
           id="g236"><path
             id="path238"
             style="fill:#6d6e70;fill-opacity:1;fill-rule:nonzero;stroke:none"
             d="m 0,0 c 0,-1.692 -1.372,-3.064 -3.064,-3.064 -1.692,0 -3.064,1.372 -3.064,3.064 0,1.692 1.372,3.064 3.064,3.064 C -1.372,3.064 0,1.692 0,0" /></g><g
           transform="translate(475.625,665.8123)"
           id="g240"><path
             id="path242"
             style="fill:#929497;fill-opacity:1;fill-rule:nonzero;stroke:none"
             d="m 0,0 c 0,-1.092 -0.885,-1.977 -1.977,-1.977 -1.091,0 -1.976,0.885 -1.976,1.977 0,1.092 0.885,1.977 1.976,1.977 C -0.885,1.977 0,1.092 0,0" /></g><g
           transform="translate(475.142,666.7894)"
           id="g244"><path
             id="path246"
             style="fill:#e6e7e8;fill-opacity:1;fill-rule:nonzero;stroke:none"
             d="m 0,0 c 0,-0.561 -0.455,-1.015 -1.015,-1.015 -0.561,0 -1.016,0.454 -1.016,1.015 0,0.561 0.455,1.015 1.016,1.015 C -0.455,1.015 0,0.561 0,0" /></g><g
           transform="translate(369.5992,638.9292)"
           id="g248"><path
             id="path250"
             style="fill:#754c28;fill-opacity:1;fill-rule:nonzero;stroke:none"
             d="m 0,0 -8.053,6.015 -3.869,0.241 5.033,5.139 c 0,0 7.199,3.287 13.9,-3.737 z" /></g><g
           transform="translate(669.0471,494.8049)"
           id="g252"><path
             id="path254"
             style="fill:#754c28;fill-opacity:1;fill-rule:nonzero;stroke:none"
             d="m 0,0 c 0,-72.884 -59.084,-131.969 -131.969,-131.969 -72.884,0 -131.968,59.085 -131.968,131.969 0,72.884 59.084,131.969 131.968,131.969 C -59.084,131.969 0,72.884 0,0" /></g><g
           transform="translate(653.7343,494.8049)"
           id="g256"><path
             id="path258"
             style="fill:#a87c4f;fill-opacity:1;fill-rule:nonzero;stroke:none"
             d="m 0,0 c 0,-64.427 -52.229,-116.656 -116.656,-116.656 -64.427,0 -116.655,52.229 -116.655,116.656 0,64.427 52.228,116.656 116.655,116.656 C -52.229,116.656 0,64.427 0,0" /></g><g
           transform="translate(584.2152,494.8049)"
           id="g260"><path
             id="path262"
             style="fill:#a6a8ab;fill-opacity:1;fill-rule:nonzero;stroke:none"
             d="m 0,0 c 0,-26.033 -21.104,-47.137 -47.137,-47.137 -26.032,0 -47.136,21.104 -47.136,47.137 0,26.033 21.104,47.137 47.136,47.137 C -21.104,47.137 0,26.033 0,0" /></g><g
           transform="translate(583.8499,494.8049)"
           id="g264"><path
             id="path266"
             style="fill:#603813;fill-opacity:1;fill-rule:nonzero;stroke:none"
             d="m 0,0 c 0,0 -0.069,1.146 -0.2,3.293 -0.045,0.535 -0.036,1.139 -0.15,1.79 -0.116,0.651 -0.241,1.361 -0.377,2.128 -0.145,0.764 -0.259,1.594 -0.484,2.456 -0.256,0.853 -0.528,1.759 -0.815,2.717 -0.149,0.475 -0.303,0.963 -0.46,1.464 -0.206,0.483 -0.416,0.979 -0.632,1.486 -0.47,0.997 -0.858,2.079 -1.446,3.122 -0.589,1.036 -1.201,2.114 -1.837,3.233 -0.729,1.06 -1.531,2.122 -2.323,3.228 -3.369,4.295 -7.957,8.441 -13.575,11.715 -2.865,1.541 -5.877,3.04 -9.173,4.096 -0.82,0.269 -1.646,0.54 -2.479,0.814 -0.853,0.198 -1.714,0.397 -2.581,0.598 l -1.301,0.308 c -0.434,0.097 -0.855,0.117 -1.285,0.181 -0.855,0.109 -1.713,0.221 -2.574,0.355 -0.403,0.085 -0.93,0.084 -1.426,0.106 l -1.505,0.059 -1.514,0.058 -0.761,0.03 c -0.208,0.005 0.175,-0.001 0.104,-0.004 l -0.088,-0.006 -0.175,-0.012 -0.35,-0.023 c -1.867,-0.138 -3.773,-0.107 -5.653,-0.495 -3.808,-0.442 -7.563,-1.639 -11.263,-3.094 -0.907,-0.415 -1.817,-0.833 -2.731,-1.252 -0.911,-0.428 -1.751,-0.997 -2.64,-1.489 l -1.321,-0.764 -1.249,-0.887 c -0.824,-0.607 -1.697,-1.161 -2.496,-1.813 -3.229,-2.589 -6.069,-5.709 -8.586,-9.126 l -1.739,-2.676 c -0.31,-0.437 -0.566,-0.906 -0.801,-1.386 l -0.746,-1.423 -0.768,-1.421 c -0.242,-0.481 -0.422,-0.989 -0.637,-1.484 -0.4,-1 -0.868,-1.984 -1.222,-3.009 l -0.989,-3.115 -0.248,-0.783 -0.163,-0.78 -0.333,-1.567 -0.342,-1.577 c -0.133,-0.514 -0.14,-1.134 -0.217,-1.696 l -0.359,-3.456 -0.006,-3.232 c -0.051,-1.12 0.079,-2.225 0.198,-3.335 l 0.181,-1.666 0.09,-0.834 0.173,-0.819 0.699,-3.284 c 0.289,-1.08 0.695,-2.124 1.035,-3.19 0.186,-0.527 0.338,-1.069 0.551,-1.585 l 0.688,-1.529 0.706,-1.52 c 0.227,-0.511 0.475,-1.01 0.778,-1.479 0.571,-0.959 1.14,-1.916 1.708,-2.871 2.495,-3.678 5.477,-6.994 8.899,-9.681 0.843,-0.682 1.777,-1.244 2.652,-1.868 0.446,-0.301 0.881,-0.616 1.335,-0.897 l 1.417,-0.757 c 0.95,-0.484 1.851,-1.043 2.821,-1.459 0.974,-0.398 1.944,-0.795 2.91,-1.19 l 0.721,-0.293 0.748,-0.219 1.486,-0.436 c 0.991,-0.273 1.947,-0.629 2.959,-0.771 0.994,-0.188 1.982,-0.376 2.966,-0.562 0.979,-0.175 1.936,-0.182 2.884,-0.304 1.801,-0.282 3.981,-0.166 6,-0.201 l 0.382,-0.006 0.191,-0.002 0.096,-0.002 c 0.066,-0.003 -0.232,0.012 -0.064,0.01 l 0.712,0.065 1.413,0.128 c 0.936,0.101 1.875,0.091 2.787,0.265 7.341,1.062 13.961,3.561 19.584,6.861 0.697,0.419 1.354,0.889 2.026,1.324 0.659,0.453 1.366,0.835 1.987,1.315 0.619,0.486 1.231,0.967 1.835,1.442 0.596,0.487 1.241,0.916 1.76,1.461 0.553,0.516 1.1,1.025 1.639,1.527 0.538,0.506 1.098,0.986 1.551,1.544 0.93,1.092 1.937,2.098 2.746,3.196 0.792,1.108 1.594,2.173 2.322,3.236 0.635,1.12 1.247,2.2 1.836,3.238 0.587,1.045 0.974,2.129 1.444,3.128 0.215,0.508 0.425,1.005 0.629,1.489 0.157,0.501 0.31,0.99 0.459,1.466 0.285,0.96 0.554,1.868 0.808,2.722 0.223,0.861 0.333,1.686 0.474,2.449 0.133,0.765 0.256,1.473 0.369,2.122 0.112,0.65 0.101,1.265 0.143,1.803 C -0.063,-1.136 0,0.018 0,0.018 Z m 0.73,-0.018 c 0,0 -0.053,-1.156 -0.153,-3.322 C 0.537,-3.882 0.555,-4.486 0.475,-5.154 0.386,-5.823 0.29,-6.553 0.185,-7.342 0.063,-8.128 0.002,-8.991 -0.162,-9.888 c -0.195,-0.891 -0.402,-1.839 -0.621,-2.839 -0.107,-0.503 -0.217,-1.02 -0.329,-1.55 -0.162,-0.516 -0.327,-1.045 -0.497,-1.587 -0.347,-1.081 -0.609,-2.261 -1.074,-3.416 -0.47,-1.16 -0.96,-2.368 -1.468,-3.62 -0.579,-1.221 -1.238,-2.465 -1.897,-3.773 -2.822,-5.09 -6.975,-10.522 -12.914,-14.942 -5.929,-4.368 -13.642,-7.563 -22.112,-8.388 -1.053,-0.137 -2.127,-0.096 -3.199,-0.143 l -1.614,-0.026 -0.81,-0.011 c 0.105,-0.003 -0.253,0.005 -0.253,0.005 l -0.095,0.008 -0.191,0.017 -0.381,0.033 c -2.05,0.221 -4.019,0.304 -6.326,0.837 -1.107,0.234 -2.252,0.41 -3.32,0.739 -1.059,0.339 -2.124,0.679 -3.193,1.021 -1.08,0.297 -2.092,0.811 -3.13,1.245 l -1.549,0.675 -0.774,0.34 -0.743,0.413 c -4.053,2.03 -7.744,4.766 -11.217,7.747 -3.409,3.08 -6.421,6.607 -9.094,10.425 -0.614,0.991 -1.229,1.984 -1.845,2.979 -0.326,0.488 -0.596,1.007 -0.844,1.539 l -0.786,1.576 -0.806,1.572 c -0.253,0.532 -0.444,1.091 -0.67,1.637 -0.419,1.102 -0.903,2.189 -1.269,3.315 l -1.024,3.417 -0.254,0.859 -0.171,0.878 -0.342,1.759 c -0.239,1.174 -0.503,2.35 -0.576,3.549 l -0.18,1.796 -0.089,0.9 -0.045,0.451 -0.022,0.225 -0.011,0.113 c -0.003,0.083 -0.01,-0.026 -0.009,0.214 l -0.009,3.475 c 0.016,0.589 -0.043,1.134 0.035,1.76 l 0.181,1.85 0.189,1.859 0.098,0.932 0.178,0.895 0.735,3.586 c 1.287,4.705 3.177,9.265 5.773,13.392 2.651,4.08 5.805,7.803 9.408,10.98 0.895,0.798 1.871,1.495 2.803,2.242 0.473,0.364 0.937,0.74 1.419,1.088 l 1.507,0.954 c 1.014,0.615 1.985,1.304 3.031,1.847 1.056,0.53 2.107,1.058 3.154,1.583 4.27,1.905 8.715,3.369 13.21,3.924 2.228,0.427 4.471,0.425 6.673,0.543 l 0.413,0.015 0.207,0.008 0.103,0.004 c -0.009,0 0.438,-0.012 0.294,-0.009 l 0.76,-0.047 1.513,-0.094 1.503,-0.094 c 0.503,-0.034 0.976,-0.041 1.552,-0.149 1.101,-0.181 2.194,-0.361 3.28,-0.539 0.536,-0.103 1.093,-0.169 1.603,-0.303 0.507,-0.139 1.012,-0.279 1.515,-0.417 1.004,-0.28 2,-0.558 2.988,-0.833 0.967,-0.341 1.904,-0.742 2.842,-1.108 1.905,-0.666 3.618,-1.682 5.33,-2.579 0.874,-0.417 1.644,-1.001 2.43,-1.529 0.779,-0.535 1.551,-1.066 2.314,-1.59 5.935,-4.469 10.059,-9.941 12.885,-15.035 0.658,-1.311 1.316,-2.557 1.895,-3.781 0.508,-1.255 0.997,-2.464 1.467,-3.626 0.464,-1.158 0.726,-2.339 1.072,-3.422 0.169,-0.543 0.334,-1.073 0.495,-1.59 0.111,-0.531 0.22,-1.048 0.326,-1.552 0.217,-1.002 0.422,-1.951 0.615,-2.844 C 0.042,9 0.1,8.143 0.219,7.358 0.32,6.571 0.414,5.843 0.5,5.176 0.578,4.508 0.557,3.894 0.595,3.349 0.683,1.165 0.731,0 0.731,0 Z" /></g><g
           transform="translate(443.2701,644.5488)"
           id="g268"><path
             id="path270"
             style="fill:#f05a28;fill-opacity:1;fill-rule:nonzero;stroke:none"
             d="m 0,0 c 0,0 24.879,5.226 29.003,-1.844 4.124,-7.07 0.838,-16.875 0.838,-16.875 0,0 7.017,1.361 7.017,9.02 0,7.658 -9.096,14.206 -9.096,14.206 C 27.762,4.507 7.917,4.594 0,0" /></g><g
           transform="translate(471.0324,649.0557)"
           id="g272"><path
             id="path274"
             style="fill:#f05a28;fill-opacity:1;fill-rule:nonzero;stroke:none"
             d="m 0,0 c 0,0 14.594,-0.943 20.682,-2.469 6.088,-1.525 13.158,4.61 13.158,4.61 0,0 -3.339,-8.492 -8.052,-9.474 -4.713,-0.982 9.819,0 9.819,0 0,0 -3.535,-8.052 -13.354,-7.07 -9.819,0.982 0.786,-5.208 0.786,-5.208 0,0 -10.925,-1.335 -23.039,19.611" /></g><g
           transform="translate(428.0708,592.7195)"
           id="g276"><path
             id="path278"
             style="fill:#faaf40;fill-opacity:1;fill-rule:nonzero;stroke:none"
             d="m 0,0 c 0,0 2.255,6.93 9.129,10.857 6.873,3.928 12.863,2.337 12.863,2.337 C 21.992,13.194 5.404,23.117 0,0" /></g><g
           transform="translate(440.0709,620.915)"
           id="g280"><path
             id="path282"
             style="fill:#faaf40;fill-opacity:1;fill-rule:nonzero;stroke:none"
             d="m 0,0 c 3.169,-6.956 10.351,-10.494 16.042,-7.902 5.692,2.593 7.736,10.334 4.567,17.29 C 17.44,16.345 10.258,19.882 4.567,17.29 -1.124,14.697 -3.169,6.956 0,0" /></g><g
           transform="translate(441.6312,620.1791)"
           id="g284"><path
             id="path286"
             style="fill:#ffffff;fill-opacity:1;fill-rule:nonzero;stroke:none"
             d="m 0,0 c 2.87,-6.301 9.376,-9.505 14.53,-7.157 5.155,2.348 7.007,9.36 4.137,15.66 C 15.797,14.804 9.291,18.008 4.136,15.66 -1.018,13.312 -2.87,6.301 0,0" /></g><g
           transform="translate(456.8186,633.42)"
           id="g288"><path
             id="path290"
             style="fill:#231f20;fill-opacity:1;fill-rule:nonzero;stroke:none"
             d="m 0,0 c 1.068,-2.344 0.033,-5.11 -2.311,-6.178 -2.344,-1.068 -5.11,-0.033 -6.178,2.311 -1.068,2.344 -0.033,5.11 2.311,6.178 C -3.834,3.379 -1.068,2.344 0,0" /></g><g
           transform="translate(453.8222,633.8394)"
           id="g292"><path
             id="path294"
             style="fill:#ffffff;fill-opacity:1;fill-rule:nonzero;stroke:none"
             d="m 0,0 c 0.372,-0.816 0.243,-1.674 -0.287,-1.915 -0.531,-0.242 -1.262,0.224 -1.634,1.04 -0.372,0.816 -0.243,1.673 0.287,1.915 C -1.103,1.282 -0.372,0.816 0,0" /></g><g
           transform="translate(435.7456,636.6013)"
           id="g296"><path
             id="path298"
             style="fill:#603813;fill-opacity:1;fill-rule:nonzero;stroke:none"
             d="M 0,0 C 0,0 3.89,10.257 14.317,6.904 14.317,6.904 2.946,15.499 0,0" /></g><g
           transform="translate(401.5085,581.5454)"
           id="g300"><path
             id="path302"
             style="fill:#f8c786;fill-opacity:1;fill-rule:nonzero;stroke:none"
             d="m 0,0 c 0,0 7.851,16.916 23.914,18.83 0,0 -1.393,-12.91 -5.998,-16.493 C 13.311,-1.245 0,0 0,0" /></g><g
           transform="translate(399.5864,559.1442)"
           id="g304"><path
             id="path306"
             style="fill:#f8c786;fill-opacity:1;fill-rule:nonzero;stroke:none"
             d="m 0,0 c 0,0 -3.801,-10.899 -10.333,-9.721 -6.531,1.178 -9.593,15.182 -9.593,15.182 0,0 7.632,6.099 10.132,10.151 z" /></g><g
           transform="translate(393.0004,558.6437)"
           id="g308"><path
             id="path310"
             style="fill:#faaf40;fill-opacity:1;fill-rule:nonzero;stroke:none"
             d="m 0,0 c 0,0 -3.212,-6.89 -5.659,-6.75 -2.448,0.14 -6.488,14.32 -6.488,14.32 l 2.969,1.993 c 0,0 2.931,-10.753 4.157,-11.456 C -3.795,-2.596 0,0 0,0" /></g><g
           transform="translate(327.9321,521.7335)"
           id="g312"><path
             id="path314"
             style="fill:#c3996b;fill-opacity:1;fill-rule:nonzero;stroke:none"
             d="m 0,0 c 0,0 -37.705,131.889 -31.225,163.153 6.481,31.265 6.91,38.924 15.238,32.443 8.328,-6.48 24.235,-54.454 26.002,-61.986 1.768,-7.533 8.248,-138.912 8.248,-138.912 z" /></g><g
           transform="translate(346.1956,516.4312)"
           id="g316"><path
             id="path318"
             style="fill:#a87c4f;fill-opacity:1;fill-rule:nonzero;stroke:none"
             d="m 0,0 6.481,5.302 c 0,0 -10.016,126.653 -10.605,133.435 -0.589,6.782 -20.031,75.838 -35.938,64.287 0,0 13.55,0.568 31.814,-64.112 z" /></g><g
           transform="translate(322.7151,494.8049)"
           id="g320"><path
             id="path322"
             style="fill:#f8c786;fill-opacity:1;fill-rule:nonzero;stroke:none"
             d="m 0,0 c 0,0 -5.977,-11.366 3.057,-18.436 9.033,-7.069 27.611,-3.927 27.611,0.786 0,10.997 -9.937,9.819 -9.937,9.819 z" /></g><g
           transform="translate(326.9502,481.7412)"
           id="g324"><path
             id="path326"
             style="fill:#f8c786;fill-opacity:1;fill-rule:nonzero;stroke:none"
             d="m 0,0 c 0,0 -0.761,-12.834 7.278,-16.369 8.04,-3.535 9.611,0 14.717,2.356 5.106,2.357 6.677,7.07 0,8.641 C 15.318,-3.801 0,0 0,0" /></g><g
           transform="translate(338.3403,467.3357)"
           id="g328"><path
             id="path330"
             style="fill:#f8c786;fill-opacity:1;fill-rule:nonzero;stroke:none"
             d="m 0,0 c 0,0 -0.786,-9.819 7.855,-7.07 8.641,2.75 16.037,5.892 13.124,9.034 C 18.067,5.106 5.891,3.535 0,0" /></g><g
           transform="translate(321.3722,491.1146)"
           id="g332"><path
             id="path334"
             style="fill:#f6921e;fill-opacity:1;fill-rule:nonzero;stroke:none"
             d="M 0,0 C 0,0 6.363,-10.121 24.823,-7.131 24.823,-7.131 6.732,-16.105 0,0" /></g><g
           transform="translate(325.7719,476.3693)"
           id="g336"><path
             id="path338"
             style="fill:#f6921e;fill-opacity:1;fill-rule:nonzero;stroke:none"
             d="M 0,0 C 0,0 11.787,-7.941 23.372,-2.792 23.372,-2.792 12.176,-13.354 0,0" /></g><g
           transform="translate(340.1569,465.3857)"
           id="g340"><path
             id="path342"
             style="fill:#f6921e;fill-opacity:1;fill-rule:nonzero;stroke:none"
             d="M 0,0 C 0,0 4.409,-2.137 11.901,4.227 11.901,4.227 9.862,-3.173 0,0" /></g><g
           transform="translate(349.3589,486.3027)"
           id="g344"><path
             id="path346"
             style="fill:#faaf40;fill-opacity:1;fill-rule:nonzero;stroke:none"
             d="M 0,0 C 0,0 -5.87,3.765 0,8.502 5.87,13.24 0,0 0,0" /></g><g
           transform="translate(349.3589,483.5151)"
           id="g348"><path
             id="path350"
             style="fill:#faaf40;fill-opacity:1;fill-rule:nonzero;stroke:none"
             d="m 0,0 c 0,0 -3.53,-5.819 -0.414,-7.146 3.116,-1.327 3.731,-3.378 3.731,-3.378 0,0 2.466,10.402 -3.317,10.524" /></g><g
           transform="translate(357.677,508.8343)"
           id="g352"><path
             id="path354"
             style="fill:#f8c786;fill-opacity:1;fill-rule:nonzero;stroke:none"
             d="M 0,0 C 0,0 8.42,-2.187 9.467,-13.006 10.513,-23.824 4.294,-29.483 0,-30.581 c -4.294,-1.099 -12.617,2.665 -8.318,8.049 4.299,5.385 10.124,7.741 9.961,11.276 C 1.48,-7.721 0,0 0,0" /></g><g
           transform="translate(357.677,486.3027)"
           id="g356"><path
             id="path358"
             style="fill:#faaf40;fill-opacity:1;fill-rule:nonzero;stroke:none"
             d="m 0,0 3.189,-6.535 c 0,0 -8.052,-2.493 -8.808,0 C -6.375,-4.042 0,0 0,0" /></g><g
           transform="translate(382.3298,491.1146)"
           id="g360"><path
             id="path362"
             style="fill:#6d6e70;fill-opacity:1;fill-rule:nonzero;stroke:none"
             d="m 0,0 7.294,5.713 7.827,-2.985 0.247,-8.489 c 0,0 -9.363,5.366 -15.368,5.761" /></g><g
           transform="translate(488.1689,622.9748)"
           id="g364"><path
             id="path366"
             style="fill:#d8a76c;fill-opacity:1;fill-rule:nonzero;stroke:none"
             d="m 0,0 c 0,0 -37.644,-12.084 -64.377,-48.218 0,0 -13.222,-20.831 -16.358,-29.396 0,0 -5.166,2.967 -5.846,3.973 C -87.262,-72.634 -63.442,-14.035 0,0" /></g><g
           id="g368"><g
             id="g370" /><g
             id="g382"><g
               style="opacity:0.21000701"
               id="g380"
               clip-path="url(#clipPath374)"><g
                 id="g378"
                 transform="translate(482.3054,648.0596)"><path
                   id="path376"
                   style="fill:#231f20;fill-opacity:1;fill-rule:nonzero;stroke:none"
                   d="m 0,0 c 1.553,-0.182 -94.474,-12.788 -104.977,-52.078 0,0 -16.002,6.164 22.258,33.446 C -66.879,-7.338 -43.239,5.053 0,0" /></g></g></g></g><g
           transform="translate(379.6604,434.8616)"
           id="g384"><path
             id="path386"
             style="fill:#f8c786;fill-opacity:1;fill-rule:nonzero;stroke:none"
             d="m 0,0 c 0,0 -24.45,4.826 -38.581,24.919 0,0 13.25,-38.893 38.581,-24.919" /></g><g
           transform="translate(383.9008,492.3451)"
           id="g388"><path
             id="path390"
             style="fill:#f8c786;fill-opacity:1;fill-rule:nonzero;stroke:none"
             d="m 0,0 9.1,-4.043 -14.32,-10.24 -5.247,7.291 z" /></g><g
           transform="translate(555.1078,470.368)"
           id="g392"><path
             id="path394"
             style="fill:#d0d2d3;fill-opacity:1;fill-rule:nonzero;stroke:none"
             d="m 0,0 c -5.345,-3.951 -12.03,-6.192 -19.25,-5.909 -15.728,0.616 -28.533,13.44 -29.127,29.169 -0.654,17.309 13.184,31.547 30.348,31.547 1.137,0 2.26,-0.063 3.365,-0.185 1.654,-0.184 3.195,0.79 3.751,2.359 0.024,0.067 0.048,0.135 0.072,0.202 0.776,2.16 -0.645,4.46 -2.926,4.721 -1.399,0.16 -2.821,0.243 -4.262,0.243 -21.42,0 -38.669,-17.859 -37.669,-39.499 0.894,-19.355 16.624,-35.039 35.981,-35.884 9.065,-0.397 17.455,2.415 24.145,7.388 1.841,1.369 1.919,4.069 0.167,5.549 C 4.541,-0.253 4.487,-0.207 4.433,-0.161 3.165,0.92 1.34,0.99 0,0" /></g><g
           transform="translate(568.2677,494.8049)"
           id="g396"><path
             id="path398"
             style="fill:#e6e7e8;fill-opacity:1;fill-rule:nonzero;stroke:none"
             d="m 0,0 c 0,-17.225 -13.964,-31.189 -31.189,-31.189 -17.225,0 -31.189,13.964 -31.189,31.189 0,17.225 13.964,31.189 31.189,31.189 C -13.964,31.189 0,17.225 0,0" /></g><g
           transform="translate(541.7917,488.3025)"
           id="g400"><path
             id="path402"
             style="fill:#d0d2d3;fill-opacity:1;fill-rule:nonzero;stroke:none"
             d="m 0,0 20.444,-11.933 c 0,0 8.634,13.401 5.723,22.825 L 3.535,8.525 17.751,28.129 c 0,0 -6.711,7.578 -12.905,8.068 L -4.161,12.132 -35.152,-5.821 Z" /></g><g
           transform="translate(550.5933,494.8049)"
           id="g404"><path
             id="path406"
             style="fill:#ffffff;fill-opacity:1;fill-rule:nonzero;stroke:none"
             d="m 0,0 c 0,-7.464 -6.051,-13.515 -13.515,-13.515 -7.464,0 -13.514,6.051 -13.514,13.515 0,7.464 6.05,13.515 13.514,13.515 C -6.051,13.515 0,7.464 0,0" /></g><g
           transform="translate(574.7839,604.2379)"
           id="g408"><path
             id="path410"
             style="fill:#603813;fill-opacity:1;fill-rule:nonzero;stroke:none"
             d="M 0,0 C 0,0 -10.676,-54.813 -24.191,-63.268 Z" /></g><g
           transform="translate(505.8895,457.0946)"
           id="g412"><path
             id="path414"
             style="fill:#603813;fill-opacity:1;fill-rule:nonzero;stroke:none"
             d="m 0,0 -32.241,-60.203 c 0,0 19.187,55.529 32.241,60.203" /></g><g
           transform="translate(435.7456,436.973)"
           id="g416"><path
             id="path418"
             style="fill:#603813;fill-opacity:1;fill-rule:nonzero;stroke:none"
             d="m 0,0 c 0,0 46.766,87.783 53.724,100.706 6.958,12.923 19.919,45.71 23.454,53.177 3.535,7.466 13.523,20.126 13.523,20.126 0,0 -71.197,-129.31 -74.174,-134.613 C 13.55,34.094 0,0 0,0" /></g><g
           transform="translate(540.0244,380.9278)"
           id="g420"><path
             id="path422"
             style="fill:#603813;fill-opacity:1;fill-rule:nonzero;stroke:none"
             d="m 0,0 c 0,0 20.293,36.718 36.858,66.74 7.879,14.279 14.914,27.043 18.522,33.622 11.193,20.413 23.565,36.085 27.689,51.225 4.124,15.141 9.32,29.531 9.32,29.531 0,0 -66.407,-146.28 -71.445,-149.304 C 15.906,28.79 0,0 0,0" /></g><g
           transform="translate(425.4224,528.6709)"
           id="g424"><path
             id="path426"
             style="fill:#603813;fill-opacity:1;fill-rule:nonzero;stroke:none"
             d="M 0,0 36.277,53.496 C 36.277,53.496 -0.308,15.185 0,0" /></g><g
           transform="translate(613.2956,406.4894)"
           id="g428"><path
             id="path430"
             style="fill:#603813;fill-opacity:1;fill-rule:nonzero;stroke:none"
             d="M 0,0 40.439,69.88 C 40.439,69.88 -0.372,10.833 0,0" /></g><g
           transform="translate(414.1674,523.7594)"
           id="g432"><path
             id="path434"
             style="fill:#754c28;fill-opacity:1;fill-rule:nonzero;stroke:none"
             d="M 0,0 C 1.652,-1.014 33.938,22.725 33.938,22.725 L -2.08,-12.902 Z" /></g><g
           transform="translate(414.4867,513.5251)"
           id="g436"><path
             id="path438"
             style="fill:#754c28;fill-opacity:1;fill-rule:nonzero;stroke:none"
             d="M 0,0 C 1.652,-1.014 33.938,22.725 33.938,22.725 L -2.08,-12.902 Z" /></g><g
           transform="translate(412.4749,501.0645)"
           id="g440"><path
             id="path442"
             style="fill:#754c28;fill-opacity:1;fill-rule:nonzero;stroke:none"
             d="M 0,0 C 1.652,-1.014 33.938,22.725 33.938,22.725 L -2.08,-12.902 Z" /></g><g
           transform="translate(410.7823,493.6996)"
           id="g444"><path
             id="path446"
             style="fill:#754c28;fill-opacity:1;fill-rule:nonzero;stroke:none"
             d="M 0,0 C 1.652,-1.014 33.938,22.725 33.938,22.725 L -2.08,-12.902 Z" /></g><g
           transform="translate(409.0898,481.3912)"
           id="g448"><path
             id="path450"
             style="fill:#754c28;fill-opacity:1;fill-rule:nonzero;stroke:none"
             d="M 0,0 C 1.652,-1.014 33.938,22.725 33.938,22.725 L -2.08,-12.902 Z" /></g><g
           transform="translate(422.2577,448.2626)"
           id="g452"><path
             id="path454"
             style="fill:#754c28;fill-opacity:1;fill-rule:nonzero;stroke:none"
             d="M 0,0 C 1.856,-0.557 26.976,30.668 26.976,30.668 L 1.298,-13.004 Z" /></g><g
           transform="translate(426.3367,442.1411)"
           id="g456"><path
             id="path458"
             style="fill:#754c28;fill-opacity:1;fill-rule:nonzero;stroke:none"
             d="M 0,0 C 1.856,-0.557 26.976,30.668 26.976,30.668 L 1.298,-13.004 Z" /></g><g
           transform="translate(430.4158,436.0196)"
           id="g460"><path
             id="path462"
             style="fill:#754c28;fill-opacity:1;fill-rule:nonzero;stroke:none"
             d="M 0,0 C 1.856,-0.557 26.976,30.668 26.976,30.668 L 1.298,-13.004 Z" /></g><g
           transform="translate(434.4948,429.898)"
           id="g464"><path
             id="path466"
             style="fill:#754c28;fill-opacity:1;fill-rule:nonzero;stroke:none"
             d="M 0,0 C 1.856,-0.557 26.976,30.668 26.976,30.668 L 1.298,-13.004 Z" /></g><g
           transform="translate(438.5738,423.7765)"
           id="g468"><path
             id="path470"
             style="fill:#754c28;fill-opacity:1;fill-rule:nonzero;stroke:none"
             d="M 0,0 C 1.856,-0.557 26.976,30.668 26.976,30.668 L 1.298,-13.004 Z" /></g><g
           transform="translate(442.6529,417.655)"
           id="g472"><path
             id="path474"
             style="fill:#754c28;fill-opacity:1;fill-rule:nonzero;stroke:none"
             d="M 0,0 C 1.856,-0.557 26.976,30.668 26.976,30.668 L 1.298,-13.004 Z" /></g><g
           transform="translate(501.6803,381.2948)"
           id="g476"><path
             id="path478"
             style="fill:#754c28;fill-opacity:1;fill-rule:nonzero;stroke:none"
             d="M 0,0 C 1.916,0.293 11.213,39.274 11.213,39.274 L 6.75,-11.19 Z" /></g><g
           transform="translate(507.287,377.6201)"
           id="g480"><path
             id="path482"
             style="fill:#754c28;fill-opacity:1;fill-rule:nonzero;stroke:none"
             d="M 0,0 C 1.916,0.293 11.213,39.274 11.213,39.274 L 6.75,-11.19 Z" /></g><g
           transform="translate(512.8937,373.9453)"
           id="g484"><path
             id="path486"
             style="fill:#754c28;fill-opacity:1;fill-rule:nonzero;stroke:none"
             d="M 0,0 C 1.916,0.293 11.213,39.274 11.213,39.274 L 6.75,-11.19 Z" /></g><g
           transform="translate(518.5004,370.2706)"
           id="g488"><path
             id="path490"
             style="fill:#754c28;fill-opacity:1;fill-rule:nonzero;stroke:none"
             d="M 0,0 C 1.916,0.293 11.213,39.274 11.213,39.274 L 6.75,-11.19 Z" /></g><g
           transform="translate(524.107,373.9453)"
           id="g492"><path
             id="path494"
             style="fill:#754c28;fill-opacity:1;fill-rule:nonzero;stroke:none"
             d="M 0,0 C 1.916,0.293 11.213,39.274 11.213,39.274 L 6.75,-11.19 Z" /></g><g
           transform="translate(603.1599,392.9844)"
           id="g496"><path
             id="path498"
             style="fill:#754c28;fill-opacity:1;fill-rule:nonzero;stroke:none"
             d="M 0,0 C 1.301,1.437 -16.099,37.537 -16.099,37.537 L 12.3,-4.416 Z" /></g><g
           transform="translate(608.9543,396.6591)"
           id="g500"><path
             id="path502"
             style="fill:#754c28;fill-opacity:1;fill-rule:nonzero;stroke:none"
             d="M 0,0 C 1.301,1.437 -16.099,37.537 -16.099,37.537 L 12.3,-4.416 Z" /></g><g
           transform="translate(614.7487,400.3338)"
           id="g504"><path
             id="path506"
             style="fill:#754c28;fill-opacity:1;fill-rule:nonzero;stroke:none"
             d="M 0,0 C 1.301,1.437 -16.099,37.537 -16.099,37.537 L 12.3,-4.416 Z" /></g><g
           transform="translate(620.5432,404.0086)"
           id="g508"><path
             id="path510"
             style="fill:#754c28;fill-opacity:1;fill-rule:nonzero;stroke:none"
             d="M 0,0 C 1.301,1.437 -16.099,37.537 -16.099,37.537 L 12.3,-4.416 Z" /></g><g
           transform="translate(626.3375,407.6833)"
           id="g512"><path
             id="path514"
             style="fill:#754c28;fill-opacity:1;fill-rule:nonzero;stroke:none"
             d="M 0,0 C 1.301,1.437 -16.099,37.537 -16.099,37.537 L 12.3,-4.416 Z" /></g><g
           transform="translate(632.132,411.358)"
           id="g516"><path
             id="path518"
             style="fill:#754c28;fill-opacity:1;fill-rule:nonzero;stroke:none"
             d="M 0,0 C 1.301,1.437 -16.099,37.537 -16.099,37.537 L 12.3,-4.416 Z" /></g><g
           transform="translate(507.287,612.1635)"
           id="g520"><path
             id="path522"
             style="fill:#754c28;fill-opacity:1;fill-rule:nonzero;stroke:none"
             d="m 0,0 11.213,-37.407 c 0,0 -8.582,41.24 -5.606,39.767 2.975,-1.473 10.67,-39.767 10.67,-39.767 L 13.296,5.779 22.427,-35.05 19.16,2.36 29.792,-30.828 26.846,6.429 C 26.846,6.429 3.201,8.539 0,0" /></g><g
           transform="translate(633.5137,568.2066)"
           id="g524"><path
             id="path526"
             style="fill:#754c28;fill-opacity:1;fill-rule:nonzero;stroke:none"
             d="m 0,0 -32.254,-16.315 34.795,10.154 -31.611,-16.684 39.988,10.057 -31.583,-17.74 37.935,11.656 -37.491,-20.664 37.491,9.848 z" /></g><g
           transform="translate(346.1956,516.4312)"
           id="g528"><path
             id="path530"
             style="fill:#a87c4f;fill-opacity:1;fill-rule:nonzero;stroke:none"
             d="m 0,0 -3.463,58.325 -2.576,-50.967 -5.928,64.518 0.881,-66.574 -8.179,72.393 c 0,0 1.002,-64.969 2.474,-61.611 1.473,3.358 -13.845,62.328 -13.845,62.328 l 5.217,-28.924 -11.477,28.207 18.633,-72.393 z" /></g><g
           transform="translate(574.7839,572.1085)"
           id="g532"><path
             id="path534"
             style="fill:#be1e2d;fill-opacity:1;fill-rule:nonzero;stroke:none"
             d="m 0,0 c 0,-6.66 -5.415,-12.06 -12.095,-12.06 -6.68,0 -12.096,5.4 -12.096,12.06 0,6.66 5.416,12.06 12.096,12.06 C -5.415,12.06 0,6.66 0,0" /></g><g
           transform="translate(562.6886,574.7565)"
           id="g536"><path
             id="path538"
             style="fill:#f6921e;fill-opacity:1;fill-rule:nonzero;stroke:none"
             d="M 0,0 63.333,103.893 67.544,101.692 4.108,-2.152 Z" /></g><g
           transform="translate(614.5075,659.7613)"
           id="g540"><path
             id="path542"
             style="fill:#be1e2d;fill-opacity:1;fill-rule:nonzero;stroke:none"
             d="m 0,0 c 0,0 -0.338,16.249 0,25.126 0.338,8.877 11.514,20.659 11.514,20.659 V 18.888 Z" /></g><g
           transform="translate(616.5554,654.0594)"
           id="g544"><path
             id="path546"
             style="fill:#be1e2d;fill-opacity:1;fill-rule:nonzero;stroke:none"
             d="m 0,0 c 0,0 18.91,8.406 25.391,13.745 6.481,5.339 14.14,10.845 14.14,10.845 L 13.677,22.389" /></g><g
           transform="translate(620.2958,453.5657)"
           id="g548"><path
             id="path550"
             style="fill:#be1e2d;fill-opacity:1;fill-rule:nonzero;stroke:none"
             d="m 0,0 c -4.077,-5.266 -11.665,-6.22 -16.947,-2.131 -5.282,4.09 -6.258,11.674 -2.181,16.94 4.078,5.267 11.665,6.221 16.947,2.131 C 3.101,12.851 4.077,5.266 0,0" /></g><g
           transform="translate(612.3532,463.0642)"
           id="g552"><path
             id="path554"
             style="fill:#f6921e;fill-opacity:1;fill-rule:nonzero;stroke:none"
             d="M 0,0 113.681,43.376 115.662,39.058 1.93,-4.217 Z" /></g><g
           transform="translate(705.3664,498.5544)"
           id="g556"><path
             id="path558"
             style="fill:#be1e2d;fill-opacity:1;fill-rule:nonzero;stroke:none"
             d="m 0,0 c 0,0 9.68,13.055 15.382,19.867 5.702,6.812 21.752,9.287 21.752,9.287 L 20.668,7.886 Z" /></g><g
           transform="translate(703.4949,492.7922)"
           id="g560"><path
             id="path562"
             style="fill:#be1e2d;fill-opacity:1;fill-rule:nonzero;stroke:none"
             d="m 0,0 c 0,0 20.099,-4.93 28.492,-4.676 8.392,0.254 17.819,-0.081 17.819,-0.081 L 24.521,9.33" /></g><g
           transform="translate(545.3306,618.8622)"
           id="g564"><path
             id="path566"
             style="fill:#be1e2d;fill-opacity:1;fill-rule:nonzero;stroke:none"
             d="m 0,0 c 3.834,-5.446 2.513,-12.978 -2.949,-16.823 -5.463,-3.846 -12.999,-2.547 -16.832,2.899 -3.834,5.446 -2.514,12.978 2.949,16.823 C -11.37,6.744 -3.834,5.446 0,0" /></g><g
           transform="translate(533.9157,614.0656)"
           id="g568"><path
             id="path570"
             style="fill:#f6921e;fill-opacity:1;fill-rule:nonzero;stroke:none"
             d="m 0,0 -8.011,121.411 4.71,0.624 L 4.598,0.604 Z" /></g><g
           transform="translate(527.361,713.4036)"
           id="g572"><path
             id="path574"
             style="fill:#be1e2d;fill-opacity:1;fill-rule:nonzero;stroke:none"
             d="M 0,0 C 0,0 -9.629,13.092 -14.462,20.546 -19.295,28 -16.938,44.068 -16.938,44.068 L -1.456,22.073 Z" /></g><g
           transform="translate(532.3176,709.9197)"
           id="g576"><path
             id="path578"
             style="fill:#be1e2d;fill-opacity:1;fill-rule:nonzero;stroke:none"
             d="m 0,0 c 0,0 10.625,17.759 12.851,25.855 2.227,8.096 5.32,17.007 5.32,17.007 L -1.703,26.18" /></g><g
           transform="translate(529.7137,617.943)"
           id="g580"><path
             id="path582"
             style="fill:#eb008b;fill-opacity:1;fill-rule:nonzero;stroke:none"
             d="M 0,0 C 0,0 -0.703,-9.673 5.295,-10.425 11.293,-11.176 -7.601,-15.154 0,0" /></g><g
           transform="translate(558.6806,578.095)"
           id="g584"><path
             id="path586"
             style="fill:#eb008b;fill-opacity:1;fill-rule:nonzero;stroke:none"
             d="M 0,0 C 0,0 -3.142,-5.637 0,-9.888 3.142,-14.139 -10.038,-10.279 0,0" /></g><g
           transform="translate(610.2384,465.3857)"
           id="g588"><path
             id="path590"
             style="fill:#eb008b;fill-opacity:1;fill-rule:nonzero;stroke:none"
             d="M 0,0 C 0,0 -5.794,-5.392 0,-10.941 5.794,-16.491 -18.456,-3.914 0,0" /></g><g
           transform="translate(191.7815,302.2388)"
           id="g592"><path
             id="path594"
             style="fill:#1b75bb;fill-opacity:1;fill-rule:nonzero;stroke:none"
             d="m 0,0 c 0,0 -92.821,-36.66 -108.71,-43.264 -15.889,-6.604 25.795,-17.229 40.147,-27.103 14.352,-9.873 -1.226,-39.64 -11.002,-55.349 -9.775,-15.709 10.178,-4.72 30.671,2.217 20.494,6.937 99.936,27.822 123.438,29.521 C 98.047,-92.279 0,0 0,0" /></g><g
           transform="translate(191.7815,302.2388)"
           id="g596"><path
             id="path598"
             style="fill:#f05a28;fill-opacity:1;fill-rule:nonzero;stroke:none"
             d="m 0,0 c 0,0 1.551,-1.371 4.459,-3.941 2.89,-2.59 7.158,-6.361 12.46,-11.301 5.31,-4.931 11.741,-10.943 18.931,-18.039 7.204,-7.085 15.252,-15.168 23.603,-24.449 4.169,-4.649 8.444,-9.565 12.585,-14.981 2.072,-2.713 4.082,-5.562 5.917,-8.728 0.905,-1.6 1.781,-3.256 2.467,-5.208 0.162,-0.501 0.338,-0.979 0.453,-1.551 0.062,-0.278 0.129,-0.546 0.181,-0.836 l 0.103,-0.935 c 0.044,-0.295 0.031,-0.661 0.011,-1.023 -0.028,-0.366 -0.018,-0.694 -0.136,-1.121 -0.11,-0.41 -0.178,-0.798 -0.374,-1.213 -0.207,-0.415 -0.425,-0.835 -0.699,-1.209 -0.305,-0.358 -0.641,-0.703 -0.992,-1.018 -0.352,-0.254 -0.725,-0.479 -1.104,-0.69 -0.376,-0.216 -0.8,-0.325 -1.213,-0.462 l -0.627,-0.171 -0.338,-0.055 -0.663,-0.105 -0.877,-0.105 -1.291,-0.158 c -1.719,-0.197 -3.454,-0.412 -5.23,-0.739 -3.53,-0.544 -7.121,-1.289 -10.745,-1.991 -7.245,-1.562 -14.666,-3.126 -22.178,-4.953 -15.045,-3.533 -30.502,-7.663 -46.196,-11.84 -7.839,-2.113 -15.731,-4.299 -23.585,-6.621 -3.954,-1.163 -7.743,-2.313 -11.71,-3.629 -3.777,-1.248 -7.623,-2.72 -11.458,-4.184 -3.859,-1.455 -7.713,-2.972 -11.77,-4.356 -2.047,-0.682 -4.091,-1.355 -6.505,-1.824 -1.253,-0.2 -2.439,-0.482 -4.44,-0.221 -0.281,0.053 -0.56,0.115 -0.837,0.186 l -0.415,0.115 -0.519,0.221 c -0.348,0.167 -0.666,0.32 -1.005,0.554 -0.363,0.277 -0.711,0.596 -1.021,0.936 -1.235,1.439 -1.458,3.342 -1.345,4.256 0.017,0.266 0.034,0.57 0.072,0.801 l 0.134,0.627 0.149,0.623 0.173,0.518 c 0.233,0.71 0.497,1.297 0.765,1.865 0.26,0.588 0.576,1.116 0.868,1.673 0.29,0.523 0.535,0.905 0.805,1.364 l 1.628,2.652 1.546,2.588 c 2.032,3.465 3.94,6.977 5.692,10.527 1.738,3.553 3.321,7.148 4.63,10.764 1.319,3.604 2.381,7.262 2.855,10.816 0.499,3.538 0.354,7.021 -0.859,9.613 -0.296,0.65 -0.65,1.251 -1.082,1.784 -0.206,0.314 -0.407,0.479 -0.589,0.682 -0.111,0.11 -0.138,0.191 -0.31,0.336 l -0.574,0.456 -0.574,0.456 c 0.309,-0.224 0.008,-0.009 0.043,-0.035 l -0.135,0.092 -0.269,0.184 -1.12,0.719 c -0.762,0.472 -1.552,0.931 -2.361,1.374 -6.518,3.547 -13.615,6.39 -20.435,9.481 -3.429,1.537 -6.834,3.081 -10.19,4.837 -1.679,0.889 -3.344,1.814 -5.005,2.952 -0.83,0.574 -1.661,1.194 -2.496,1.986 -0.803,0.811 -1.76,1.721 -2.342,3.569 -0.278,0.907 -0.291,2.16 0.106,3.168 0.383,1.008 0.966,1.688 1.51,2.22 0.54,0.491 1.082,0.879 1.586,1.166 0.252,0.152 0.511,0.297 0.784,0.427 0.274,0.137 0.55,0.27 0.725,0.339 l 0.699,0.292 0.613,0.234 1.221,0.466 c 0.813,0.31 1.623,0.619 2.43,0.927 3.23,1.225 6.411,2.431 9.539,3.617 6.266,2.35 12.319,4.621 18.13,6.801 11.613,4.382 22.294,8.314 31.759,11.801 9.476,3.461 17.738,6.478 24.541,8.963 6.821,2.442 12.18,4.361 15.834,5.669 C -1.95,-0.694 0,0 0,0 m 0,0 c 0,0 -1.893,-0.836 -5.442,-2.403 -3.552,-1.559 -8.762,-3.846 -15.393,-6.758 -6.647,-2.868 -14.72,-6.351 -23.98,-10.346 -9.27,-3.97 -19.727,-8.451 -31.173,-13.245 -5.719,-2.409 -11.676,-4.918 -17.841,-7.515 -3.087,-1.287 -6.226,-2.596 -9.414,-3.925 -0.798,-0.331 -1.598,-0.663 -2.402,-0.996 l -1.207,-0.501 -0.606,-0.251 -0.505,-0.23 c -0.23,-0.101 -0.343,-0.17 -0.459,-0.234 -0.122,-0.061 -0.244,-0.136 -0.366,-0.216 -0.258,-0.152 -0.418,-0.304 -0.533,-0.404 -0.077,-0.091 -0.055,-0.116 0.016,0.056 0.08,0.176 0.08,0.494 0.056,0.554 -0.059,0.135 0.213,-0.349 0.704,-0.749 0.477,-0.426 1.096,-0.875 1.76,-1.304 1.337,-0.862 2.867,-1.666 4.435,-2.437 3.154,-1.538 6.519,-2.954 9.944,-4.371 6.871,-2.844 13.996,-5.602 21.193,-9.326 0.9,-0.473 1.8,-0.974 2.703,-1.511 0.451,-0.265 0.902,-0.549 1.354,-0.838 l 0.339,-0.223 0.169,-0.111 c 0.135,-0.096 -0.061,0.056 0.344,-0.243 l 0.582,-0.446 0.582,-0.446 c 0.206,-0.164 0.5,-0.457 0.743,-0.685 0.51,-0.489 1.025,-0.998 1.382,-1.492 0.814,-0.98 1.49,-2.076 2.03,-3.202 1.094,-2.265 1.638,-4.659 1.862,-6.967 0.221,-2.317 0.105,-4.56 -0.144,-6.746 -1.119,-8.72 -4.326,-16.544 -7.928,-24.092 -1.831,-3.763 -3.808,-7.45 -5.903,-11.072 l -1.594,-2.704 -1.582,-2.609 c -0.249,-0.429 -0.553,-0.917 -0.756,-1.296 -0.174,-0.359 -0.394,-0.713 -0.542,-1.071 -0.17,-0.364 -0.325,-0.716 -0.405,-0.989 l -0.077,-0.213 -0.021,-0.129 -0.037,-0.127 c -0.004,-0.022 0.018,0.022 0.014,0.031 -0.026,-0.107 0.046,0.724 -0.569,1.36 -0.692,0.707 -1.03,0.691 -1.068,0.703 0.05,-0.038 0.939,0.023 1.705,0.19 1.64,0.321 3.536,0.927 5.4,1.569 3.76,1.305 7.599,2.837 11.472,4.324 3.895,1.48 7.79,2.935 11.867,4.262 3.884,1.265 8.004,2.495 11.962,3.632 7.964,2.304 15.908,4.455 23.806,6.535 15.785,4.197 31.425,7.876 46.629,11.232 7.598,1.679 15.112,3.223 22.514,4.551 3.725,0.611 7.386,1.262 11.084,1.724 1.822,0.281 3.691,0.462 5.557,0.62 l 1.391,0.128 0.347,0.032 0.174,0.015 c -0.046,-0.005 0.348,0.036 -0.06,-0.009 l 0.666,0.086 0.326,0.043 c 0.003,0.017 0.006,0.029 0.01,0.036 0.002,0.024 0.034,-0.02 0.037,0.004 0.002,0.018 0.019,0.012 0.04,-0.003 -0.038,0.002 -0.062,-0.026 -0.056,-0.067 -0.09,-0.167 0.035,0 0.018,0.483 l -0.024,0.38 -0.09,0.457 c -0.039,0.296 -0.162,0.646 -0.257,0.982 -0.433,1.373 -1.132,2.838 -1.888,4.261 -1.539,2.865 -3.397,5.629 -5.267,8.318 -3.775,5.372 -7.79,10.389 -11.72,15.138 -7.917,9.465 -15.506,17.919 -22.303,25.344 -6.826,7.402 -12.834,13.814 -17.827,19.054 C 10.77,-11.17 6.835,-7.062 4.152,-4.261 1.444,-1.482 0,0 0,0" /></g><g
           transform="translate(191.7815,302.2388)"
           id="g600"><path
             id="path602"
             style="fill:#005486;fill-opacity:1;fill-rule:nonzero;stroke:none"
             d="m 0,0 46.787,-49.796 c 0,0 35.04,-32.866 29.277,-40.252 -1.202,-1.541 -15.804,-3.106 -26.034,-4.61 -37.787,-5.554 -52.063,-11.844 -52.063,-11.844 l 26.853,17.092 -25.993,-7.585 22.831,11.197 -26.455,-5.094 21.022,11.066 -24.678,-4.511 20.506,11.912 -23.192,-6.197 25.059,11.813 -30.792,-4.044 22.83,7.275 -23.235,-1.679 17.255,8.94 -24.701,-4.193 18.406,9.514 -20.096,-4.996 c 0,0 17.895,10.292 16.086,10.161 -1.809,-0.13 -21.447,-5.187 -21.447,-5.187 l 16.952,10.773 -17.344,-5.346 15.11,11.094 -26.226,-8.26 19.502,13.23 -20.155,-4.185 14.951,6.991 -15.278,-2.468 13.12,7.17 -22.781,-5.596 21.101,13.118 z" /></g><g
           transform="translate(224.6724,229.6709)"
           id="g604"><path
             id="path606"
             style="fill:#f05a28;fill-opacity:1;fill-rule:nonzero;stroke:none"
             d="M 0,0 47.531,-14.079 31.507,9.222 Z" /></g><g
           transform="translate(259.1635,235.3654)"
           id="g608"><path
             id="path610"
             style="fill:#be1e2d;fill-opacity:1;fill-rule:nonzero;stroke:none"
             d="M 0,0 -13.117,-4.221 9.322,-12.504 Z" /></g><g
           transform="translate(808.2185,302.2388)"
           id="g612"><path
             id="path614"
             style="fill:#1b75bb;fill-opacity:1;fill-rule:nonzero;stroke:none"
             d="m 0,0 c 0,0 92.821,-36.66 108.71,-43.264 15.889,-6.604 -25.795,-17.229 -40.147,-27.103 -14.352,-9.873 1.226,-39.64 11.002,-55.349 9.775,-15.709 -10.178,-4.72 -30.672,2.217 -20.493,6.937 -99.935,27.822 -123.438,29.521 C -98.047,-92.279 0,0 0,0" /></g><g
           transform="translate(813.8258,300.2442)"
           id="g616"><path
             id="path618"
             style="fill:#f05a28;fill-opacity:1;fill-rule:nonzero;stroke:none"
             d="m 0,0 c 3.654,-1.308 9.013,-3.227 15.834,-5.669 6.803,-2.485 15.064,-5.503 24.54,-8.964 9.466,-3.486 20.146,-7.418 31.759,-11.801 5.812,-2.179 11.865,-4.45 18.13,-6.8 3.128,-1.186 6.309,-2.393 9.539,-3.617 0.807,-0.308 1.617,-0.617 2.43,-0.927 l 1.222,-0.466 0.612,-0.234 0.7,-0.292 c 0.174,-0.069 0.45,-0.202 0.725,-0.34 0.273,-0.13 0.532,-0.274 0.784,-0.426 0.504,-0.288 1.046,-0.676 1.586,-1.166 0.543,-0.532 1.126,-1.213 1.51,-2.22 0.397,-1.009 0.383,-2.261 0.106,-3.168 -0.582,-1.848 -1.539,-2.758 -2.342,-3.57 -0.836,-0.791 -1.666,-1.411 -2.497,-1.985 -1.66,-1.138 -3.325,-2.063 -5.004,-2.952 -3.356,-1.756 -6.761,-3.301 -10.191,-4.837 -6.819,-3.091 -13.916,-5.935 -20.434,-9.481 -0.81,-0.444 -1.599,-0.902 -2.361,-1.375 l -1.12,-0.719 -0.269,-0.184 -0.135,-0.092 c 0.034,0.027 -0.267,-0.188 0.043,0.036 l -0.574,-0.456 -0.574,-0.456 c -0.173,-0.145 -0.199,-0.226 -0.31,-0.336 -0.183,-0.204 -0.383,-0.368 -0.589,-0.682 -0.432,-0.534 -0.786,-1.134 -1.082,-1.785 -1.214,-2.591 -1.358,-6.075 -0.859,-9.613 0.473,-3.553 1.535,-7.211 2.855,-10.815 1.309,-3.616 2.892,-7.212 4.629,-10.764 1.753,-3.55 3.661,-7.063 5.692,-10.527 l 1.546,-2.589 1.629,-2.651 c 0.269,-0.459 0.515,-0.841 0.805,-1.364 0.292,-0.557 0.608,-1.085 0.868,-1.673 0.267,-0.568 0.532,-1.156 0.764,-1.866 l 0.174,-0.517 0.149,-0.624 0.133,-0.627 c 0.038,-0.231 0.056,-0.534 0.072,-0.8 0.114,-0.915 -0.109,-2.817 -1.345,-4.256 -0.309,-0.341 -0.658,-0.66 -1.021,-0.936 -0.338,-0.235 -0.657,-0.388 -1.005,-0.555 l -0.519,-0.221 -0.414,-0.114 c -0.277,-0.071 -0.557,-0.133 -0.837,-0.186 -2.001,-0.261 -3.187,0.021 -4.441,0.22 -2.413,0.47 -4.458,1.142 -6.505,1.825 -4.057,1.384 -7.91,2.901 -11.769,4.356 -3.835,1.463 -7.682,2.936 -11.459,4.184 -3.967,1.316 -7.755,2.466 -11.709,3.629 -7.855,2.322 -15.746,4.508 -23.586,6.621 -15.694,4.176 -31.15,8.306 -46.195,11.839 -7.513,1.827 -14.934,3.392 -22.178,4.954 -3.624,0.701 -7.215,1.447 -10.745,1.991 -1.777,0.326 -3.511,0.542 -5.231,0.739 l -1.29,0.157 -0.877,0.106 -0.663,0.105 -0.338,0.054 -0.627,0.172 c -0.413,0.137 -0.838,0.246 -1.213,0.461 -0.38,0.212 -0.752,0.437 -1.105,0.69 -0.35,0.315 -0.686,0.66 -0.992,1.018 -0.273,0.375 -0.491,0.795 -0.698,1.21 -0.197,0.415 -0.264,0.803 -0.374,1.213 -0.119,0.427 -0.109,0.754 -0.136,1.121 -0.02,0.362 -0.033,0.727 0.011,1.022 l 0.102,0.936 c 0.052,0.289 0.12,0.557 0.182,0.836 0.114,0.571 0.291,1.05 0.453,1.551 0.685,1.951 1.562,3.607 2.467,5.207 1.834,3.167 3.844,6.016 5.916,8.728 4.142,5.416 8.416,10.332 12.586,14.982 8.351,9.28 16.399,17.364 23.602,24.448 7.19,7.097 13.622,13.109 18.932,18.039 5.302,4.94 9.569,8.712 12.46,11.301 2.908,2.571 4.459,3.942 4.459,3.942 0,0 1.95,-0.694 5.607,-1.995 m -9.759,-2.267 c -2.683,-2.8 -6.618,-6.908 -11.627,-12.137 -4.992,-5.239 -11,-11.652 -17.826,-19.053 -6.797,-7.425 -14.387,-15.879 -22.304,-25.344 -3.929,-4.75 -7.945,-9.767 -11.72,-15.139 -1.87,-2.688 -3.727,-5.452 -5.266,-8.317 -0.757,-1.423 -1.456,-2.888 -1.888,-4.262 -0.096,-0.336 -0.218,-0.685 -0.257,-0.982 l -0.09,-0.456 -0.024,-0.381 c -0.017,-0.482 0.107,-0.649 0.018,-0.482 0.006,0.041 -0.018,0.069 -0.057,0.067 0.021,0.015 0.039,0.021 0.041,0.003 0.002,-0.025 0.035,0.02 0.037,-0.004 0.004,-0.007 0.007,-0.019 0.01,-0.036 l 0.326,-0.043 0.666,-0.086 c -0.409,0.044 -0.014,0.003 -0.06,0.009 l 0.173,-0.016 0.347,-0.031 1.392,-0.128 c 1.866,-0.159 3.735,-0.34 5.557,-0.62 3.697,-0.463 7.359,-1.113 11.084,-1.724 7.402,-1.329 14.916,-2.873 22.514,-4.551 15.204,-3.356 30.844,-7.035 46.629,-11.232 7.898,-2.08 15.841,-4.231 23.806,-6.535 3.958,-1.138 8.077,-2.367 11.962,-3.632 4.076,-1.327 7.971,-2.782 11.866,-4.263 3.873,-1.487 7.713,-3.019 11.472,-4.324 1.864,-0.641 3.76,-1.247 5.401,-1.568 0.766,-0.168 1.654,-0.228 1.705,-0.19 -0.038,-0.013 -0.376,0.004 -1.068,-0.704 -0.615,-0.636 -0.543,-1.467 -0.57,-1.359 -0.004,-0.01 0.019,-0.053 0.015,-0.031 l -0.037,0.126 -0.021,0.13 -0.077,0.212 c -0.08,0.273 -0.236,0.626 -0.405,0.99 -0.148,0.357 -0.368,0.711 -0.543,1.07 -0.203,0.38 -0.507,0.868 -0.755,1.296 l -1.582,2.609 -1.594,2.705 c -2.095,3.621 -4.072,7.308 -5.903,11.071 -3.602,7.548 -6.809,15.372 -7.929,24.093 -0.248,2.185 -0.364,4.428 -0.144,6.745 0.225,2.308 0.769,4.703 1.863,6.968 0.54,1.126 1.215,2.221 2.029,3.201 0.358,0.495 0.872,1.004 1.383,1.492 0.242,0.229 0.537,0.522 0.743,0.685 l 0.582,0.447 0.581,0.446 c 0.406,0.299 0.21,0.147 0.344,0.242 l 0.17,0.112 0.339,0.223 c 0.452,0.288 0.903,0.573 1.354,0.838 0.902,0.537 1.803,1.038 2.703,1.511 7.196,3.723 14.321,6.481 21.193,9.325 3.425,1.417 6.79,2.833 9.944,4.371 1.568,0.771 3.098,1.575 4.434,2.438 0.665,0.428 1.284,0.877 1.761,1.303 0.49,0.4 0.763,0.885 0.703,0.75 -0.023,-0.06 -0.024,-0.379 0.057,-0.554 0.071,-0.173 0.093,-0.148 0.015,-0.057 -0.114,0.101 -0.274,0.253 -0.532,0.404 -0.122,0.081 -0.244,0.155 -0.367,0.216 -0.115,0.065 -0.228,0.134 -0.458,0.234 l -0.505,0.23 -0.606,0.251 -1.207,0.501 c -0.804,0.333 -1.605,0.665 -2.402,0.996 -3.188,1.33 -6.327,2.639 -9.414,3.926 -6.166,2.597 -12.122,5.106 -17.841,7.515 -11.446,4.794 -21.904,9.275 -31.174,13.244 -9.259,3.996 -17.332,7.479 -23.98,10.347 -6.63,2.911 -11.84,5.198 -15.392,6.758 -3.549,1.567 -5.442,2.403 -5.442,2.403 0,0 -1.444,-1.483 -4.152,-4.262" /></g><g
           transform="translate(808.2185,302.2388)"
           id="g620"><path
             id="path622"
             style="fill:#005486;fill-opacity:1;fill-rule:nonzero;stroke:none"
             d="m 0,0 -46.787,-49.796 c 0,0 -35.04,-32.866 -29.277,-40.252 1.202,-1.541 15.804,-3.106 26.034,-4.61 37.787,-5.554 52.063,-11.844 52.063,-11.844 l -26.853,17.092 25.993,-7.585 -22.831,11.197 26.455,-5.094 -21.022,11.066 24.678,-4.511 -20.506,11.912 23.192,-6.197 -25.059,11.813 30.792,-4.044 -22.83,7.275 23.235,-1.679 -17.255,8.94 24.701,-4.193 -18.406,9.514 20.096,-4.996 c 0,0 -17.895,10.292 -16.086,10.161 1.809,-0.13 21.447,-5.187 21.447,-5.187 l -16.952,10.773 17.344,-5.346 -15.11,11.094 26.225,-8.26 -19.501,13.23 20.155,-4.185 -14.951,6.991 15.278,-2.468 -13.12,7.17 22.781,-5.596 -21.101,13.118 z" /></g><g
           transform="translate(776.8452,232.5195)"
           id="g624"><path
             id="path626"
             style="fill:#f05a28;fill-opacity:1;fill-rule:nonzero;stroke:none"
             d="M 0,0 -49.048,-16.927 -33.025,6.374 Z" /></g><g
           transform="translate(743.8204,238.8931)"
           id="g628"><path
             id="path630"
             style="fill:#be1e2d;fill-opacity:1;fill-rule:nonzero;stroke:none"
             d="m 0,0 29.57,-6.374 -41.876,-9.657 z" /></g><g
           transform="translate(767.9891,233.0893)"
           id="g632"><path
             id="path634"
             style="fill:#1b75bb;fill-opacity:1;fill-rule:nonzero;stroke:none"
             d="m 0,0 c -175.605,44.489 -359.514,44.638 -535.175,0.447 -9.515,-2.39 -19.25,3.054 -21.78,12.349 -9.193,34.179 -18.386,68.358 -27.58,102.537 -2.529,9.289 4.145,19.191 14.948,21.906 198.326,49.893 405.965,49.725 604.227,-0.504 10.8,-2.734 17.459,-12.648 14.914,-21.933 C 40.303,80.638 31.053,46.475 21.803,12.312 19.257,3.022 9.511,-2.407 0,0" /></g><g
           transform="translate(765.9099,233.6138)"
           id="g636"><path
             id="path638"
             style="fill:#f05a28;fill-opacity:1;fill-rule:nonzero;stroke:none"
             d="m 0,0 c 0,0 0.33,-0.06 0.977,-0.18 0.641,-0.159 1.622,-0.255 2.922,-0.324 0.652,0.006 1.387,0.042 2.196,0.087 0.807,0.15 1.703,0.19 2.65,0.485 1.907,0.451 4.094,1.305 6.34,2.796 2.237,1.479 4.573,3.571 6.5,6.453 0.464,0.732 0.963,1.463 1.35,2.291 0.204,0.406 0.411,0.815 0.621,1.229 0.173,0.43 0.349,0.865 0.526,1.303 0.706,1.774 1.163,3.723 1.674,5.736 1.027,4.035 2.129,8.373 3.304,13.001 1.133,4.639 2.337,9.568 3.605,14.777 2.568,10.411 5.229,21.986 8.163,34.577 1.449,6.301 2.955,12.859 4.511,19.663 0.389,1.701 0.782,3.418 1.177,5.149 0.198,0.866 0.397,1.736 0.596,2.609 0.157,0.822 0.276,1.537 0.396,2.312 0.334,3.067 -0.06,6.2 -1.131,9.104 -1.13,2.876 -2.932,5.52 -5.307,7.519 -1.199,0.981 -2.494,1.854 -3.911,2.496 -0.713,0.368 -1.282,0.497 -1.972,0.794 -0.468,0.127 -0.936,0.253 -1.404,0.379 -0.235,0.063 -0.47,0.126 -0.705,0.19 0.318,-0.093 -0.117,0.018 -0.138,0.017 -0.12,0.026 -0.239,0.051 -0.358,0.077 -7.616,1.683 -15.458,3.341 -23.518,4.958 -8.065,1.595 -16.292,3.388 -24.707,5.246 -8.418,1.846 -17.071,3.524 -25.912,5.176 -141.072,27.631 -335.251,32.266 -522.31,-15.804 -4.506,-1.096 -8.424,-4.152 -10.638,-8.26 -1.114,-2.04 -1.811,-4.312 -2.035,-6.63 -0.049,-0.581 -0.123,-1.16 -0.083,-1.746 0.004,-0.589 0,-1.187 0.08,-1.641 0.021,-0.247 0.042,-0.494 0.064,-0.741 0,-0.219 0.137,-0.705 0.199,-1.045 0.079,-0.374 0.159,-0.748 0.239,-1.122 0.05,-0.245 -0.038,0.125 0.07,-0.295 0.049,-0.185 0.098,-0.37 0.147,-0.554 3.128,-11.833 6.254,-23.654 9.373,-35.453 3.12,-11.798 6.233,-23.573 9.337,-35.313 1.552,-5.871 3.101,-11.732 4.649,-17.584 0.829,-3.221 1.356,-5.16 2.476,-7.231 1.077,-2.02 2.508,-3.822 4.178,-5.275 1.67,-1.454 3.574,-2.559 5.563,-3.227 0.994,-0.334 2.008,-0.553 3.025,-0.676 0.508,-0.089 1.018,-0.044 1.526,-0.087 0.52,-0.033 0.878,0.062 1.329,0.057 0.173,-0.016 0.499,0.044 0.835,0.113 0.324,0.062 0.648,0.124 0.971,0.185 0.059,0.009 0.556,0.112 0.254,0.041 0.16,0.04 0.319,0.08 0.479,0.12 0.319,0.079 0.639,0.158 0.958,0.238 1.277,0.316 2.554,0.631 3.832,0.943 2.554,0.624 5.107,1.238 7.658,1.841 10.204,2.415 20.383,4.67 30.523,6.766 20.279,4.195 40.402,7.756 60.255,10.72 79.434,11.92 154.433,13.937 218.403,10.603 15.987,-0.961 31.349,-1.574 45.865,-3.338 7.253,-0.907 14.31,-1.862 21.161,-2.855 6.845,-1.044 13.484,-2.122 19.905,-3.222 25.678,-4.515 47.857,-9.498 66.088,-13.668 4.56,-1.041 8.868,-2.054 12.918,-3.03 4.06,-0.927 7.861,-1.82 11.394,-2.667 3.534,-0.846 6.799,-1.646 9.789,-2.391 2.999,-0.706 5.721,-1.359 8.157,-1.951 C -5.178,1.363 -0.002,-0.007 0,0 m 0,0 c 0,-0.007 -5.195,1.296 -14.967,3.546 -2.444,0.56 -5.173,1.178 -8.18,1.844 -3.015,0.626 -6.31,1.296 -9.871,2.001 -3.562,0.705 -7.393,1.443 -11.482,2.206 -4.1,0.714 -8.458,1.45 -13.066,2.195 -18.433,2.971 -40.925,5.725 -66.71,7.983 -6.443,0.593 -13.094,1.147 -19.941,1.649 -6.842,0.555 -13.88,1.059 -21.105,1.504 -14.442,0.937 -29.567,2.586 -45.423,3.256 -63.347,3.302 -137.617,1.303 -216.278,-10.5 -19.659,-2.934 -39.586,-6.462 -59.668,-10.615 -10.041,-2.076 -20.121,-4.309 -30.226,-6.7 -2.526,-0.598 -5.054,-1.206 -7.583,-1.824 -1.265,-0.309 -2.53,-0.62 -3.794,-0.934 -0.317,-0.078 -0.633,-0.157 -0.949,-0.236 -0.159,-0.039 -0.317,-0.078 -0.475,-0.118 -0.237,-0.047 -0.474,-0.094 -0.711,-0.141 -0.32,-0.061 -0.641,-0.122 -0.961,-0.183 -0.308,-0.061 -0.625,-0.126 -1.112,-0.161 -0.863,-0.065 -1.807,-0.19 -2.611,-0.153 -0.815,0.045 -1.632,0.018 -2.447,0.142 -1.633,0.191 -3.261,0.55 -4.855,1.082 -3.19,1.07 -6.238,2.829 -8.93,5.152 -2.691,2.321 -5.025,5.213 -6.793,8.47 -0.445,0.814 -0.879,1.634 -1.221,2.502 -0.369,0.854 -0.735,1.711 -0.997,2.605 -0.645,1.916 -0.926,3.163 -1.354,4.673 -1.597,5.838 -3.197,11.686 -4.799,17.543 -3.205,11.713 -6.419,23.461 -9.639,35.232 -3.22,11.771 -6.446,23.566 -9.676,35.371 -0.05,0.185 -0.101,0.369 -0.151,0.554 0.005,-0.051 -0.179,0.689 -0.203,0.819 -0.083,0.373 -0.166,0.747 -0.249,1.12 -0.08,0.412 -0.171,0.663 -0.242,1.205 -0.068,0.513 -0.136,1.026 -0.204,1.538 -0.158,1.061 -0.167,1.992 -0.181,2.931 -0.049,0.945 0.037,1.885 0.114,2.826 0.339,3.756 1.447,7.424 3.235,10.716 3.525,6.612 9.967,11.628 17.252,13.391 188.687,48.488 384.554,43.814 526.854,15.941 8.922,-1.654 17.636,-3.41 26.164,-5.096 8.531,-1.674 16.83,-3.512 24.85,-5.617 8.024,-2.082 15.825,-4.192 23.389,-6.313 0.309,-0.089 0.618,-0.178 0.927,-0.267 0.231,-0.079 0.463,-0.159 0.694,-0.239 0.462,-0.16 0.924,-0.32 1.385,-0.48 1.09,-0.477 2.367,-0.982 3.333,-1.569 2.027,-1.111 3.848,-2.521 5.479,-4.08 3.239,-3.155 5.514,-7.093 6.782,-11.222 1.203,-4.162 1.344,-8.525 0.556,-12.591 -0.228,-0.994 -0.497,-2.038 -0.757,-2.955 -0.268,-0.855 -0.535,-1.706 -0.802,-2.553 -0.532,-1.695 -1.059,-3.375 -1.582,-5.04 C 48.73,93.75 46.721,87.328 44.793,81.158 40.974,68.806 37.431,57.469 34.395,47.186 32.862,42.048 31.415,37.185 30.052,32.608 28.732,28.02 27.496,23.719 26.345,19.717 25.77,17.716 25.249,15.758 24.478,13.983 24.282,13.537 24.088,13.095 23.896,12.659 23.67,12.244 23.446,11.834 23.226,11.427 22.812,10.597 22.271,9.88 21.796,9.144 19.815,6.246 17.434,4.162 15.165,2.698 12.887,1.221 10.679,0.389 8.76,-0.04 7.807,-0.325 6.906,-0.353 6.097,-0.493 5.284,-0.529 4.548,-0.556 3.895,-0.553 2.593,-0.468 1.615,-0.36 0.975,-0.193 0.328,-0.064 0,0 0,0" /></g></g></g></g></svg>