<?xml version="1.0" encoding="UTF-8" standalone="no"?>
<svg
   xmlns:dc="http://purl.org/dc/elements/1.1/"
   xmlns:cc="http://creativecommons.org/ns#"
   xmlns:rdf="http://www.w3.org/1999/02/22-rdf-syntax-ns#"
   xmlns:svg="http://www.w3.org/2000/svg"
   xmlns="http://www.w3.org/2000/svg"
   viewBox="0 0 3456 3456"
   height="3456"
   width="3456"
   xml:space="preserve"
   id="svg2"
   version="1.1"><metadata
     id="metadata8"><rdf:RDF><cc:Work
         rdf:about=""><dc:format>image/svg+xml</dc:format><dc:type
           rdf:resource="http://purl.org/dc/dcmitype/StillImage" /></cc:Work></rdf:RDF></metadata><defs
     id="defs6"><clipPath
       id="clipPath36"
       clipPathUnits="userSpaceOnUse"><path
         id="path34"
         d="M 391.825,0 H 2370.693 V 2127.4 H 391.825 Z" /></clipPath><clipPath
       id="clipPath88"
       clipPathUnits="userSpaceOnUse"><path
         id="path86"
         d="m 1553.84,1086.17 h 206.65 V 839.146 h -206.65 z" /></clipPath><clipPath
       id="clipPath92"
       clipPathUnits="userSpaceOnUse"><path
         id="path90"
         d="m 1553.843,839.146 h 206.644 v 247.023 h -206.644 z" /></clipPath><clipPath
       id="clipPath96"
       clipPathUnits="userSpaceOnUse"><path
         id="path94"
         d="m 1553.84,1086.17 h 99.38 v -83.52 h -99.38 z" /></clipPath><clipPath
       id="clipPath100"
       clipPathUnits="userSpaceOnUse"><path
         id="path98"
         d="m 1553.843,1002.649 h 99.375 v 83.52 h -99.375 z" /></clipPath><clipPath
       id="clipPath104"
       clipPathUnits="userSpaceOnUse"><path
         id="path102"
         d="m 1577.77,1036.05 h 111.21 v -87.897 h -111.21 z" /></clipPath><clipPath
       id="clipPath108"
       clipPathUnits="userSpaceOnUse"><path
         id="path106"
         d="m 1577.771,948.153 h 111.207 v 87.893 h -111.207 z" /></clipPath><clipPath
       id="clipPath112"
       clipPathUnits="userSpaceOnUse"><path
         id="path110"
         d="m 1601.69,986.205 h 123.04 v -92.547 h -123.04 z" /></clipPath><clipPath
       id="clipPath116"
       clipPathUnits="userSpaceOnUse"><path
         id="path114"
         d="m 1601.69,893.658 h 123.038 v 92.547 H 1601.69 Z" /></clipPath><clipPath
       id="clipPath120"
       clipPathUnits="userSpaceOnUse"><path
         id="path118"
         d="m 1625.6,936.509 h 134.89 V 839.146 H 1625.6 Z" /></clipPath><clipPath
       id="clipPath124"
       clipPathUnits="userSpaceOnUse"><path
         id="path122"
         d="m 1625.6,839.146 h 134.887 v 97.363 H 1625.6 Z" /></clipPath><clipPath
       id="clipPath208"
       clipPathUnits="userSpaceOnUse"><path
         id="path206"
         d="M 0,2592 H 2592 V 0 H 0 Z" /></clipPath></defs><g
     transform="matrix(1.3333333,0,0,-1.3333333,0,3456)"
     id="g10"><path
       id="path12"
       style="fill:#ef413d;fill-opacity:1;fill-rule:nonzero;stroke:none"
       d="M 132.059,48.93 H 2592 V 2592 H 132.059 Z" /><g
       transform="translate(0,2592)"
       id="g14"><path
         id="path16"
         style="fill:#242c30;fill-opacity:1;fill-rule:nonzero;stroke:none"
         d="M 0,0 V -2030.307 L 966.12,-2115.868 1541.539,0 Z" /></g><g
       transform="translate(1512.1051,2592)"
       id="g18"><path
         id="path20"
         style="fill:#ef413d;fill-opacity:1;fill-rule:nonzero;stroke:none"
         d="M 0,0 -471.682,-1826.922 48.702,0 Z" /></g><g
       transform="translate(1275.8887,2592)"
       id="g22"><path
         id="path24"
         style="fill:#ef413d;fill-opacity:1;fill-rule:nonzero;stroke:none"
         d="M 0,0 -235.465,-1826.922 83.818,0 Z" /></g><g
       transform="translate(976.6216,2592)"
       id="g26"><path
         id="path28"
         style="fill:#ef413d;fill-opacity:1;fill-rule:nonzero;stroke:none"
         d="M 0,0 63.802,-1826.922 89.218,0 Z" /></g><g
       id="g30"><g
         clip-path="url(#clipPath36)"
         id="g32"><g
           transform="translate(1403.045,1675.5955)"
           id="g38"><path
             id="path40"
             style="fill:#f04e4d;fill-opacity:1;fill-rule:nonzero;stroke:none"
             d="m 0,0 c -22.632,0 -44.181,31.599 -55.228,50.915 3.085,-2.208 5.941,-4.33 8.635,-6.342 18.19,-13.554 31.335,-23.348 65.244,-23.348 5.421,0 11.431,0.265 17.867,0.767 60.044,4.765 99.648,107.959 105.146,180.62 3.844,50.949 12.539,165.702 -59.065,237.817 22.53,-8.976 48.299,-23.894 68.322,-59.005 6.231,-10.928 11.755,-19.691 16.622,-27.431 16.546,-26.263 27.465,-43.618 42.971,-108.897 C 230.52,160.869 205.493,115.912 178.147,77.076 127.889,5.686 48.042,2.139 9.675,0.435 6.649,0.298 0,0 0,0" /></g><g
           transform="translate(1466.4642,2127.3972)"
           id="g42"><path
             id="path44"
             style="fill:#ffffff;fill-opacity:1;fill-rule:nonzero;stroke:none"
             d="m 0,0 c 85.182,-66.847 78.789,-185.478 73.99,-248.873 -5.166,-68.296 -43.226,-172.086 -101.234,-176.69 -6.435,-0.511 -12.249,-0.75 -17.517,-0.75 -44.343,0 -51.341,17.245 -85.463,38.282 0,0 31.215,-68.04 66.804,-68.04 0.52,0 1.04,0.017 1.56,0.043 36.228,2.037 124.76,0.273 180.082,78.849 27.695,39.33 53.268,86.214 33.023,171.456 C 131,-120.481 118.546,-116.219 91.209,-68.271 63.872,-20.322 25.453,-8.652 0,0 m 36.177,-24.141 c 16.622,-9.385 33.611,-23.774 47.624,-48.349 6.274,-11.005 11.824,-19.819 16.716,-27.593 16.316,-25.905 27.09,-43.022 42.434,-107.61 19.589,-82.497 -4.919,-126.541 -31.702,-164.577 -49.056,-69.685 -124.598,-73.035 -165.182,-74.842 -3.043,-0.136 -5.856,-0.256 -8.405,-0.401 -0.366,-0.017 -0.724,-0.034 -1.082,-0.034 -13.767,0 -28.07,14.21 -39.416,29.818 14.363,-9.982 29.204,-17.108 58.075,-17.108 5.533,0 11.653,0.255 18.191,0.775 62.431,4.962 103.45,110.364 109.059,184.541 3.631,48.009 11.499,151.995 -46.312,225.38" /></g><g
           transform="translate(1439.5977,1144.3259)"
           id="g46"><path
             id="path48"
             style="fill:#f04e4d;fill-opacity:1;fill-rule:nonzero;stroke:none"
             d="m 0,0 c -0.503,1.705 -1.083,4.006 -1.73,7.118 -9.624,46.601 -42.212,113.823 -75.406,139.609 -38.896,30.227 -102.955,62.525 -166.094,62.525 -58.263,0 -94.687,-10.655 -111.709,-33.142 4.39,52.091 8.345,76.343 10.757,81.841 6.649,0.571 33.5,1.611 59.533,2.625 60.462,2.345 103.74,4.143 109.988,5.823 h 0.06 c 13.408,0 64.281,-21.882 68.577,-24.746 l -0.128,0.17 c 3.521,-3.768 18.284,-17.517 84.586,-77.289 L 6.231,45.707 C 4.944,28.488 2.446,9.01 0,0" /></g><g
           transform="translate(1078.283,1293.7424)"
           id="g50"><path
             id="path52"
             style="fill:#ffffff;fill-opacity:1;fill-rule:nonzero;stroke:none"
             d="m 0,0 c -0.503,-3.367 -0.75,-6.896 -0.75,-10.579 0,0 0.264,4.007 0.75,10.579 m 187.49,121.308 c -0.767,0 -1.415,-0.068 -1.944,-0.205 C 175.01,118.256 22.7,113.994 15.037,112.579 8.763,111.411 2.182,29.639 0,0 c 5.626,37.762 43.081,55.578 118.086,55.578 60.087,0 123.285,-30.398 163.477,-61.63 31.301,-24.32 63.88,-88.814 73.854,-137.104 2.139,-10.39 4.126,-14.474 5.916,-14.474 6.529,0 10.51,54.257 10.51,54.257 L 343.585,17.389 c 0,0 -85.088,76.718 -85.634,78.142 -0.512,1.347 -55.893,25.777 -70.461,25.777 m 0,-8.524 c 10.749,0 58.587,-20.1 65.329,-24.039 5.592,-5.779 23.297,-22.001 83.077,-75.899 l 27.346,-116.884 c -0.614,-8.089 -1.526,-16.793 -2.549,-24.55 C 348.35,-82.71 318.754,-24.158 286.797,0.673 247.338,31.335 182.299,64.102 118.086,64.102 82.242,64.102 37.49,60.795 11.695,38.495 c 3.299,36.211 6.402,58.05 8.593,65.986 9.385,0.588 33.244,1.509 56.438,2.412 70.555,2.745 103.714,4.263 110.696,5.891 h 0.068" /></g><g
           transform="translate(1691.3866,1395.179)"
           id="g54"><path
             id="path56"
             style="fill:#f04e4d;fill-opacity:1;fill-rule:nonzero;stroke:none"
             d="m 0,0 c 17.023,26.527 18.046,68.031 16.324,86.069 -2.668,27.968 -18.106,65.909 -52.808,80.775 -8.797,3.768 -18.958,5.677 -30.184,5.677 -16.878,0 -33.739,-4.219 -47.906,-9.811 19.563,16.69 51.324,35.605 72.856,35.605 28.974,0 94.832,-35.017 94.832,-92.7 C 53.114,45.596 23.032,14.789 0,0" /></g><g
           transform="translate(1649.6725,1597.7576)"
           id="g58"><path
             id="path60"
             style="fill:#ffffff;fill-opacity:1;fill-rule:nonzero;stroke:none"
             d="m 0,0 c -31.966,0 -81.347,-36.978 -92.002,-54.026 16.87,10.348 42.724,19.708 67.043,19.708 10.007,0 19.751,-1.586 28.505,-5.337 33.96,-14.542 47.863,-52.321 50.25,-77.263 2.643,-27.67 -2.114,-87.706 -36.918,-101.967 0,0 82.216,20.697 82.216,121.922 C 99.094,-37.293 31.966,0 0,0 m 0,-8.524 c 27.661,0 90.57,-33.415 90.57,-88.439 0,-47.13 -18.66,-75.482 -37.473,-92.078 10.118,26.126 10.638,57.666 9.181,72.933 -2.779,29.136 -18.958,68.696 -55.373,84.287 -9.334,3.998 -20.049,6.027 -31.864,6.027 -8.678,0 -17.347,-1.083 -25.666,-2.873 16.886,11.005 36.372,20.143 50.625,20.143" /></g><g
           transform="translate(2339.4717,-214.9492)"
           id="g62"><path
             id="path64"
             style="fill:#ffffff;fill-opacity:1;fill-rule:nonzero;stroke:none"
             d="m 0,0 c 33.568,31.233 43.721,117.361 12.215,174.141 -31.983,57.632 -108.342,90.067 -167.279,194.863 -92.564,164.56 -370.922,705.182 -370.922,705.182 -27.951,49.961 -149.506,213.89 -176.093,261.122 -29.161,51.828 -19.725,85.413 23.083,67.163 -7.578,71.969 -99.017,99.588 -133.838,161.67 -30.858,55.024 -9.939,136.873 12.224,170.901 34.591,53.106 95.147,81.27 154.288,37.848 43.294,-31.795 48.059,-93.144 20.347,-137.777 -28.036,-45.144 -92.394,-58.382 -92.394,-58.382 78.508,-66.071 167.083,-291.681 167.083,-291.681 69.532,-25.59 192.707,-124.761 192.707,-124.761 -8.84,228.764 96.46,326.478 117.463,491.157 9.223,72.311 15.932,298.534 -170.509,483.629 -202.612,201.163 -461.382,207.275 -461.382,207.275 143.642,-116.773 106.255,-308.278 60.897,-375.679 -38.299,-56.908 -114.531,-67.674 -181.531,-19.964 -68.748,48.955 -35.18,127.395 -35.18,127.395 -56.097,-7.425 -167.279,22.571 -218.373,114.991 53.669,-91.55 7.058,-177.474 -40.916,-207.582 0,0 101.958,-31.582 102.41,-108.504 0.452,-76.905 -65.79,-124.36 -155.575,-114.574 -112.077,12.223 -374.886,123.601 -377.367,316.998 0,0 -268.777,-197.361 -223.965,-539.292 44.172,-337.056 368.229,-481.584 471.414,-516.371 220.462,-74.34 412.308,-15.327 640.552,-145.943 0,0 -20.433,175.062 -2.779,254.192 0,0 -161.9,204.751 -175.198,309.599 0,0 -56.243,-46.039 -122.212,-43.022 -67.622,3.103 -130.429,45.784 -131.111,103.518 -0.912,77.255 74.17,107.559 152.49,100.978 48.46,-4.075 140.027,-37.669 172.419,-93.681 36.535,-63.173 6.666,-153.615 69.771,-200.54 8.43,45.928 44.513,35.042 74.757,-17.441 27.559,-47.829 107.746,-240.434 137.231,-291.281 0,0 328.515,-522.789 424.318,-688.926 60.974,-105.734 58.544,-208.553 92.837,-267.2 C -104.345,-17.722 -34.105,-31.736 0,0" /></g><g
           transform="translate(1450.1251,820.5151)"
           id="g66"><path
             id="path68"
             style="fill:#f04e4d;fill-opacity:1;fill-rule:nonzero;stroke:none"
             d="m 0,0 c 0,0 -5.183,2.327 -14.9,6.691 -9.906,3.819 -24.499,9.087 -43.661,14.014 -19.112,5.038 -42.63,9.931 -69.822,14.449 -27.201,4.535 -58.067,8.746 -91.746,13.724 -33.705,4.841 -70.308,9.999 -108.905,16.767 -38.607,6.674 -79.344,14.474 -120.942,25.428 -41.564,10.936 -84.398,23.791 -126.312,41.623 -41.845,17.824 -83.204,39.51 -121.29,66.489 -18.711,13.826 -37.192,28.445 -53.771,44.505 l -12.36,11.635 -12.173,12.574 c -8.32,8.243 -15.684,17.048 -23.22,25.683 -30.073,34.677 -53.813,73.973 -71.296,114.233 -17.245,40.413 -26.937,82.455 -29.511,122.459 -1.671,20.006 -1.159,39.535 0.06,58.263 1.56,18.727 4.159,36.662 7.603,53.651 6.726,34.046 17.125,64.077 27.602,89.93 10.535,25.88 21.404,47.608 30.891,65.16 9.428,17.576 17.859,30.798 23.484,39.842 5.771,8.959 8.849,13.741 8.849,13.741 0,0 -2.6,-5.055 -7.485,-14.517 -4.833,-9.479 -11.533,-23.578 -19.784,-41.573 -8.141,-18.045 -17.321,-40.277 -25.812,-66.369 -8.379,-26.101 -16.332,-56.021 -21.336,-89.103 -4.833,-33.074 -6.657,-69.371 -2.506,-107.09 0.708,-9.454 2.694,-18.881 4.117,-28.471 2.174,-9.47 3.845,-19.154 6.777,-28.65 5.055,-19.171 12.113,-38.214 20.441,-57.027 17.1,-37.498 40.695,-73.444 69.217,-106.305 7.211,-8.132 14.312,-16.503 22.06,-24.047 l 11.397,-11.636 12.403,-11.49 c 16.017,-15.327 33.389,-28.735 51.205,-41.812 35.861,-25.802 75.209,-46.857 115.409,-64.332 40.311,-17.295 81.457,-31.335 121.99,-42.774 40.55,-11.389 80.341,-20.833 118.367,-28.829 38.035,-7.928 74.195,-14.986 107.618,-21.609 66.907,-12.88 122.578,-26.178 160.409,-39.143 19.026,-6.163 33.159,-13.34 42.74,-18.003 C -4.936,2.813 0,0 0,0" /></g><g
           transform="translate(1176.579,1832.5286)"
           id="g70"><path
             id="path72"
             style="fill:#f04e4d;fill-opacity:1;fill-rule:nonzero;stroke:none"
             d="m 0,0 c 15.31,-27.116 44.658,-79.071 81.347,-143.999 22.231,-39.34 58.237,-76.923 107.72,-119.544 20.842,-66.063 41.76,-144.92 79.232,-211.196 86.402,-152.813 152.166,-241.644 140.377,-248.173 -4.509,-2.498 -7.731,13.289 -64.758,57.7 -34.958,27.226 -35.197,53.413 -39.706,77.911 -7.024,38.18 -66.6,128.145 -105.615,166.546 -39.808,39.186 -151.714,84.049 -205.604,96.477 46.432,11.721 67.853,24.763 76.13,74.118 C 79.915,-185.76 -23.442,-7.817 0,0" /></g><g
           transform="translate(1104.2444,1563.7937)"
           id="g74"><path
             id="path76"
             style="fill:#f04e4d;fill-opacity:1;fill-rule:nonzero;stroke:none"
             d="m 0,0 c 22.546,21.933 40.371,59.132 40.371,91.43 0,52.101 -45.256,90.391 -77.895,108.48 C -14.9,199.015 14.593,186.501 33.722,169.504 53.6,151.833 69.805,112.502 55.697,55.109 48.554,26.084 22.086,9.24 0,0" /></g><g
           transform="translate(1064.1455,1768.021)"
           id="g78"><path
             id="path80"
             style="fill:#ffffff;fill-opacity:1;fill-rule:nonzero;stroke:none"
             d="m 0,0 c -4.552,0 -8.848,-0.469 -12.786,-1.458 30.994,-13.366 88.992,-53.362 88.992,-111.343 0,-44.096 -35.631,-98.992 -67.886,-105.521 0,0 77.996,12.846 91.609,68.185 C 113.542,-94.79 100.373,-52.62 76.65,-31.54 56.618,-13.733 24.686,0 0,0 m 23.442,-12.224 c 16.92,-4.884 34.659,-14.227 47.548,-25.683 18.949,-16.844 34.327,-54.641 20.662,-110.193 -4.841,-19.682 -19.281,-33.5 -34.898,-42.996 16.426,22.487 27.977,51.972 27.977,78.295 0,44.846 -30.935,79.258 -61.289,100.577" /></g><g
           id="g82"><g
             id="g84" /><g
             id="g196"><g
               id="g194"
               clip-path="url(#clipPath88)"><g
                 id="g192"><g
                   id="g190"
                   clip-path="url(#clipPath92)"><g
                     id="g140"><g
                       id="g126" /><g
                       id="g138"><g
                         id="g136"
                         clip-path="url(#clipPath96)"><g
                           id="g134"><g
                             id="g132"
                             clip-path="url(#clipPath100)"><g
                               id="g130"
                               transform="translate(1555.0487,1009.8456)"><path
                                 id="path128"
                                 style="fill:#f04e4d;fill-opacity:1;fill-rule:nonzero;stroke:none"
                                 d="m 0,0 c 0,0 -0.341,2.139 -0.938,5.873 -0.358,1.731 -0.255,5.234 -0.264,8.448 -0.043,3.435 0.904,6.521 1.458,10.263 1.185,3.461 2.045,7.39 3.972,11.03 0.912,1.833 1.85,3.725 2.804,5.652 1.168,1.781 2.362,3.605 3.572,5.455 2.549,3.58 5.464,7.101 8.771,10.246 l 5.106,4.62 5.652,3.998 c 1.799,1.432 3.989,2.302 5.967,3.418 2.029,1.057 3.998,2.174 6.171,2.822 2.114,0.75 4.203,1.5 6.274,2.233 2.148,0.435 4.262,0.861 6.351,1.279 4.1,1.091 8.285,0.639 12.07,0.989 3.827,-0.231 7.408,-0.759 10.681,-1.109 3.188,-0.86 6.103,-1.653 8.686,-2.352 2.583,-0.64 4.612,-1.876 6.385,-2.54 3.469,-1.526 5.455,-2.387 5.455,-2.387 0,0 -2.08,0.614 -5.702,1.696 -1.833,0.443 -3.93,1.398 -6.539,1.714 -2.565,0.366 -5.464,0.775 -8.626,1.227 -3.188,-0.06 -6.623,0.017 -10.195,-0.196 -3.529,-0.801 -7.356,-0.801 -10.996,-2.293 -1.824,-0.605 -3.691,-1.228 -5.575,-1.85 -1.764,-0.895 -3.555,-1.79 -5.362,-2.702 -1.841,-0.784 -3.478,-2.029 -5.14,-3.18 -1.628,-1.21 -3.427,-2.148 -4.85,-3.631 l -4.467,-4.066 -3.895,-4.535 c -2.489,-3.026 -4.586,-6.325 -6.325,-9.555 -0.81,-1.654 -1.611,-3.274 -2.396,-4.868 -0.571,-1.653 -1.133,-3.273 -1.679,-4.85 -1.219,-3.103 -1.398,-6.231 -2.037,-8.959 0.017,-2.702 -0.495,-5.481 -0.119,-7.305 0.391,-2.029 0.085,-3.18 0.707,-5.123 1.057,-3.64 1.654,-5.72 1.654,-5.72 C 17.96,-0.784 15.36,-5.524 10.834,-6.854 6.308,-8.175 1.56,-5.583 0.239,-1.057 0.145,-0.733 0.06,-0.324 0,0" /></g></g></g></g></g></g><g
                     id="g156"><g
                       id="g142" /><g
                       id="g154"><g
                         id="g152"
                         clip-path="url(#clipPath104)"><g
                           id="g150"><g
                             id="g148"
                             clip-path="url(#clipPath108)"><g
                               id="g146"
                               transform="translate(1579.0852,955.3749)"><path
                                 id="path144"
                                 style="fill:#f04e4d;fill-opacity:1;fill-rule:nonzero;stroke:none"
                                 d="m 0,0 c 0,0 -0.367,2.361 -1.014,6.487 -0.486,1.722 -0.239,5.643 -0.248,9.104 -0.162,3.844 1.083,7.186 1.756,11.286 1.202,3.844 2.532,8.047 4.621,12.045 1.082,1.986 2.199,4.014 3.333,6.094 1.278,1.969 2.761,3.862 4.185,5.822 1.347,2.029 3.034,3.811 4.773,5.584 1.773,1.73 3.282,3.75 5.328,5.242 l 5.865,4.765 c 2.071,1.449 4.279,2.719 6.41,4.066 2.08,1.432 4.398,2.447 6.691,3.461 2.336,0.938 4.459,2.276 6.888,2.83 2.361,0.699 4.697,1.398 7.015,2.08 2.31,0.639 4.714,0.784 6.999,1.176 4.569,0.963 9.112,0.503 13.306,0.588 4.211,-0.196 8.123,-1.15 11.712,-1.628 3.529,-0.929 6.675,-2.088 9.471,-2.949 2.855,-0.725 4.995,-2.293 6.921,-3.094 3.742,-1.867 5.873,-2.933 5.873,-2.933 0,0 -2.241,0.819 -6.162,2.259 -1.995,0.58 -4.211,1.867 -7.101,2.268 -2.839,0.537 -5.993,1.304 -9.453,1.824 -3.521,0.06 -7.306,0.562 -11.269,0.298 -3.964,-0.545 -8.167,-0.545 -12.292,-1.926 -2.072,-0.614 -4.228,-0.963 -6.274,-1.79 -2.02,-0.853 -4.075,-1.722 -6.138,-2.592 -2.114,-0.716 -3.921,-2.19 -5.89,-3.247 -1.952,-1.134 -3.904,-2.234 -5.609,-3.742 -1.756,-1.424 -3.572,-2.728 -5.242,-4.203 l -4.646,-4.739 c -1.637,-1.458 -2.719,-3.41 -4.074,-5.038 -1.322,-1.671 -2.592,-3.333 -3.521,-5.183 -0.997,-1.798 -2.071,-3.495 -2.949,-5.234 -0.733,-1.798 -1.441,-3.563 -2.14,-5.276 -1.33,-3.41 -1.943,-6.82 -2.566,-9.837 -0.068,-2.992 -0.852,-6.069 -0.341,-8.073 0.077,-1.057 0.154,-2.054 0.23,-2.975 0.017,-0.451 0.035,-0.886 0.052,-1.304 0.153,-0.562 0.298,-1.091 0.434,-1.594 1.1,-4.032 1.731,-6.333 1.731,-6.333 C 17.918,-0.955 15.25,-5.66 10.706,-6.913 6.154,-8.166 1.458,-5.49 0.204,-0.946 0.119,-0.639 0.051,-0.307 0,0" /></g></g></g></g></g></g><g
                     id="g172"><g
                       id="g158" /><g
                       id="g170"><g
                         id="g168"
                         clip-path="url(#clipPath112)"><g
                           id="g166"><g
                             id="g164"
                             clip-path="url(#clipPath116)"><g
                               id="g162"
                               transform="translate(1603.127,900.8857)"><path
                                 id="path160"
                                 style="fill:#f04e4d;fill-opacity:1;fill-rule:nonzero;stroke:none"
                                 d="m 0,0 c 0,0 -0.401,2.591 -1.1,7.118 -0.537,1.926 -0.281,5.967 -0.23,9.794 -0.153,4.143 1.151,7.885 2.02,12.3 1.228,4.228 3.026,8.687 5.277,13.068 1.261,2.123 2.549,4.296 3.87,6.521 1.355,2.191 3.162,4.109 4.765,6.214 1.577,2.14 3.384,4.109 5.421,5.907 2.003,1.816 3.819,3.87 6.018,5.507 2.2,1.62 4.416,3.248 6.641,4.893 2.233,1.611 4.773,2.77 7.143,4.16 2.353,1.44 4.842,2.6 7.433,3.52 2.566,0.946 5.004,2.148 7.612,2.839 5.234,1.313 10.289,2.77 15.412,3.009 5.038,0.81 9.956,0.366 14.559,0.17 4.612,-0.162 8.84,-1.542 12.753,-2.165 3.861,-0.997 7.219,-2.532 10.263,-3.554 3.094,-0.921 5.396,-2.66 7.45,-3.674 4.006,-2.225 6.299,-3.495 6.299,-3.495 0,0 -2.404,1.031 -6.615,2.838 -2.139,0.785 -4.526,2.259 -7.671,2.848 -3.086,0.698 -6.462,1.858 -10.272,2.429 -3.861,0.204 -7.97,1.125 -12.352,0.818 C 80.306,80.801 75.712,80.775 71.1,79.514 66.395,78.84 61.843,76.965 57.214,75.32 54.921,74.459 52.79,73.095 50.566,72.021 48.315,70.964 46.184,69.694 44.198,68.168 42.203,66.685 40.047,65.457 38.214,63.812 L 32.792,58.894 C 31.002,57.283 29.621,55.288 28.045,53.549 26.433,51.836 25.061,49.977 23.919,48.008 22.751,46.082 21.362,44.326 20.432,42.382 19.537,40.447 18.659,38.546 17.807,36.697 16.366,32.955 15.309,29.281 14.704,25.948 14.457,22.606 13.647,19.341 14.142,17.065 14.474,14.534 13.988,12.94 14.875,10.434 16.034,6.001 16.69,3.469 16.69,3.469 17.884,-1.091 15.156,-5.754 10.596,-6.947 6.035,-8.141 1.372,-5.413 0.179,-0.852 0.102,-0.571 0.042,-0.281 0,0" /></g></g></g></g></g></g><g
                     id="g188"><g
                       id="g174" /><g
                       id="g186"><g
                         id="g184"
                         clip-path="url(#clipPath120)"><g
                           id="g182"><g
                             id="g180"
                             clip-path="url(#clipPath124)"><g
                               id="g178"
                               transform="translate(1627.1713,846.3854)"><path
                                 id="path176"
                                 style="fill:#f04e4d;fill-opacity:1;fill-rule:nonzero;stroke:none"
                                 d="m 0,0 -1.194,7.757 c -0.588,2.131 -0.332,6.316 -0.221,10.493 -0.137,4.45 1.219,8.593 2.293,13.315 0.409,2.404 1.594,4.612 2.557,6.981 1.1,2.311 1.884,4.885 3.359,7.135 2.83,4.569 5.762,9.377 9.751,13.545 3.538,4.56 8.303,8.141 12.778,12.011 4.902,3.367 9.794,6.853 15.284,9.291 5.191,2.975 11.056,4.492 16.512,6.427 5.745,1.126 11.26,2.72 16.835,2.762 2.762,0.111 5.447,0.554 8.089,0.358 2.634,-0.204 5.217,-0.4 7.723,-0.596 5.03,-0.145 9.564,-1.944 13.809,-2.72 4.211,-1.057 7.774,-2.983 11.048,-4.177 3.341,-1.125 5.805,-3.034 7.987,-4.253 4.27,-2.6 6.709,-4.083 6.709,-4.083 0,0 -2.566,1.253 -7.059,3.435 -2.267,1.006 -4.824,2.642 -8.217,3.435 -3.341,0.878 -6.93,2.421 -11.098,3.061 -4.203,0.349 -8.618,1.687 -13.443,1.355 C 91.124,85.498 88.669,85.455 86.163,85.421 83.674,85.378 81.159,84.696 78.602,84.364 73.436,83.87 68.407,81.849 63.25,80.358 58.374,78.056 53.182,76.24 48.716,73.061 43.951,70.41 39.859,66.821 35.785,63.454 32.17,59.627 28.249,56.149 25.624,51.921 c -3.12,-3.887 -5.132,-8.175 -7.135,-12.13 -1.066,-1.952 -1.424,-4.1 -2.148,-6.018 -0.588,-1.961 -1.424,-3.785 -1.5,-5.677 C 14.406,24.422 13.57,20.935 14.056,18.37 14.312,15.625 13.869,13.681 14.798,10.979 16.017,6.137 16.707,3.376 16.707,3.376 17.858,-1.202 15.088,-5.839 10.51,-6.981 5.941,-8.132 1.304,-5.353 0.162,-0.784 0.094,-0.529 0.042,-0.256 0,0" /></g></g></g></g></g></g></g></g></g></g></g></g></g><g
       transform="translate(1055.6658,766.8963)"
       id="g198"><path
         id="path200"
         style="fill:#242c30;fill-opacity:1;fill-rule:nonzero;stroke:none"
         d="m 0,0 -1055.666,18.19 v -785.086 h 2592 v 1380.92 z" /></g><g
       id="g202"><g
         clip-path="url(#clipPath208)"
         id="g204"><g
           transform="translate(3052.0066,1235.927)"
           id="g210"><path
             id="path212"
             style="fill:#ef413d;fill-opacity:1;fill-rule:nonzero;stroke:none"
             d="m 0,0 -1995.049,-466.997 14.993,8.809 2010.059,578.2 C 30.003,100.59 0,18.651 0,0" /></g><g
           transform="translate(3049.0063,1523.9558)"
           id="g214"><path
             id="path216"
             style="fill:#ef413d;fill-opacity:1;fill-rule:nonzero;stroke:none"
             d="m 0,0 -1924.265,-734.692 -67.784,-17.546 L 12.001,75.008 C 12.001,55.586 0,18.651 0,0" /></g><g
           transform="translate(3058.0073,1040.9076)"
           id="g218"><path
             id="path220"
             style="fill:#ef413d;fill-opacity:1;fill-rule:nonzero;stroke:none"
             d="m 0,0 -2005.143,-274.031 16.366,9.053 L 15.001,75.007 C 15.39,63.605 1.577,15.848 0,0" /></g><g
           transform="translate(3067.0083,764.8799)"
           id="g222"><path
             id="path224"
             style="fill:#ef413d;fill-opacity:1;fill-rule:nonzero;stroke:none"
             d="m 0,0 -2014.144,1.996 41.139,13.229 L 30.003,144.014 C 27.04,126.903 3.936,22.135 0,0" /></g></g></g></g></svg>